<svg width="200" height="36" viewBox="0 0 200 36" fill="none" xmlns="http://www.w3.org/2000/svg">
<path d="M24.7572 15.0238C24.3332 15.0238 23.9553 14.7565 23.8142 14.3567L20.9426 6.22196C20.6287 5.33245 19.3707 5.33245 19.0567 6.22196L16.1852 14.3567C16.044 14.7565 15.6662 15.0238 15.2422 15.0238H6.87264C5.8638 15.0238 5.48967 16.3481 6.34937 16.876L12.94 20.9229C13.3437 21.1708 13.5181 21.6679 13.3577 22.1137L10.7276 29.4233C10.4026 30.3263 11.4128 31.1241 12.2159 30.5988L19.4527 25.8653C19.785 25.6479 20.2144 25.6478 20.5469 25.8649L27.802 30.6026C28.6052 31.1272 29.6145 30.3294 29.2897 29.4268L26.6581 22.1131C26.4978 21.6676 26.6719 21.1708 27.0752 20.9227L33.6555 16.8756C34.5145 16.3473 34.14 15.0238 33.1316 15.0238H24.7572Z" fill="#FFD523"/>
<path d="M24.7572 15.0238C24.3332 15.0238 23.9553 14.7565 23.8142 14.3567L20.9426 6.22196C20.6287 5.33245 19.3707 5.33245 19.0567 6.22196L16.1852 14.3567C16.044 14.7565 15.6662 15.0238 15.2422 15.0238H6.87264C5.8638 15.0238 5.48967 16.3481 6.34937 16.876L12.94 20.9229C13.3437 21.1708 13.5181 21.6679 13.3577 22.1137L10.7276 29.4233C10.4026 30.3263 11.4128 31.1241 12.2159 30.5988L19.4527 25.8653C19.785 25.6479 20.2144 25.6478 20.5469 25.8649L27.802 30.6026C28.6052 31.1272 29.6145 30.3294 29.2897 29.4268L26.6581 22.1131C26.4978 21.6676 26.6719 21.1708 27.0752 20.9227L33.6555 16.8756C34.5145 16.3473 34.14 15.0238 33.1316 15.0238H24.7572Z" fill="#FFD523"/>
<path d="M64.7572 15.0238C64.3332 15.0238 63.9553 14.7565 63.8142 14.3567L60.9426 6.22196C60.6287 5.33245 59.3707 5.33245 59.0567 6.22196L56.1852 14.3567C56.044 14.7565 55.6662 15.0238 55.2422 15.0238H46.8726C45.8638 15.0238 45.4897 16.3481 46.3494 16.876L52.94 20.9229C53.3437 21.1708 53.5181 21.6679 53.3577 22.1137L50.7276 29.4233C50.4026 30.3263 51.4128 31.1241 52.2159 30.5988L59.4527 25.8653C59.785 25.6479 60.2144 25.6478 60.5469 25.8649L67.802 30.6026C68.6052 31.1272 69.6145 30.3294 69.2897 29.4268L66.6581 22.1131C66.4978 21.6676 66.6719 21.1708 67.0752 20.9227L73.6555 16.8756C74.5145 16.3473 74.14 15.0238 73.1316 15.0238H64.7572Z" fill="#FFD523"/>
<path d="M64.7572 15.0238C64.3332 15.0238 63.9553 14.7565 63.8142 14.3567L60.9426 6.22196C60.6287 5.33245 59.3707 5.33245 59.0567 6.22196L56.1852 14.3567C56.044 14.7565 55.6662 15.0238 55.2422 15.0238H46.8726C45.8638 15.0238 45.4897 16.3481 46.3494 16.876L52.94 20.9229C53.3437 21.1708 53.5181 21.6679 53.3577 22.1137L50.7276 29.4233C50.4026 30.3263 51.4128 31.1241 52.2159 30.5988L59.4527 25.8653C59.785 25.6479 60.2144 25.6478 60.5469 25.8649L67.802 30.6026C68.6052 31.1272 69.6145 30.3294 69.2897 29.4268L66.6581 22.1131C66.4978 21.6676 66.6719 21.1708 67.0752 20.9227L73.6555 16.8756C74.5145 16.3473 74.14 15.0238 73.1316 15.0238H64.7572Z" fill="#FFD523"/>
<path d="M104.757 15.0238C104.333 15.0238 103.955 14.7565 103.814 14.3567L100.943 6.22196C100.629 5.33245 99.3707 5.33245 99.0567 6.22196L96.1852 14.3567C96.044 14.7565 95.6662 15.0238 95.2422 15.0238H86.8726C85.8638 15.0238 85.4897 16.3481 86.3494 16.876L92.94 20.9229C93.3437 21.1708 93.5181 21.6679 93.3577 22.1137L90.7276 29.4233C90.4026 30.3263 91.4128 31.1241 92.2159 30.5988L99.4527 25.8653C99.785 25.6479 100.214 25.6478 100.547 25.8649L107.802 30.6026C108.605 31.1272 109.614 30.3294 109.29 29.4268L106.658 22.1131C106.498 21.6676 106.672 21.1708 107.075 20.9227L113.655 16.8756C114.514 16.3473 114.14 15.0238 113.132 15.0238H104.757Z" fill="#FFD523"/>
<path d="M104.757 15.0238C104.333 15.0238 103.955 14.7565 103.814 14.3567L100.943 6.22196C100.629 5.33245 99.3707 5.33245 99.0567 6.22196L96.1852 14.3567C96.044 14.7565 95.6662 15.0238 95.2422 15.0238H86.8726C85.8638 15.0238 85.4897 16.3481 86.3494 16.876L92.94 20.9229C93.3437 21.1708 93.5181 21.6679 93.3577 22.1137L90.7276 29.4233C90.4026 30.3263 91.4128 31.1241 92.2159 30.5988L99.4527 25.8653C99.785 25.6479 100.214 25.6478 100.547 25.8649L107.802 30.6026C108.605 31.1272 109.614 30.3294 109.29 29.4268L106.658 22.1131C106.498 21.6676 106.672 21.1708 107.075 20.9227L113.655 16.8756C114.514 16.3473 114.14 15.0238 113.132 15.0238H104.757Z" fill="#FFD523"/>
<path d="M144.757 15.0238C144.333 15.0238 143.955 14.7565 143.814 14.3567L140.943 6.22196C140.629 5.33245 139.371 5.33245 139.057 6.22196L136.185 14.3567C136.044 14.7565 135.666 15.0238 135.242 15.0238H126.873C125.864 15.0238 125.49 16.3481 126.349 16.876L132.94 20.9229C133.344 21.1708 133.518 21.6679 133.358 22.1137L130.728 29.4233C130.403 30.3263 131.413 31.1241 132.216 30.5988L139.453 25.8653C139.785 25.6479 140.214 25.6478 140.547 25.8649L147.802 30.6026C148.605 31.1272 149.614 30.3294 149.29 29.4268L146.658 22.1131C146.498 21.6676 146.672 21.1708 147.075 20.9227L153.655 16.8756C154.514 16.3473 154.14 15.0238 153.132 15.0238H144.757Z" fill="#FFD523"/>
<path d="M144.757 15.0238C144.333 15.0238 143.955 14.7565 143.814 14.3567L140.943 6.22196C140.629 5.33245 139.371 5.33245 139.057 6.22196L136.185 14.3567C136.044 14.7565 135.666 15.0238 135.242 15.0238H126.873C125.864 15.0238 125.49 16.3481 126.349 16.876L132.94 20.9229C133.344 21.1708 133.518 21.6679 133.358 22.1137L130.728 29.4233C130.403 30.3263 131.413 31.1241 132.216 30.5988L139.453 25.8653C139.785 25.6479 140.214 25.6478 140.547 25.8649L147.802 30.6026C148.605 31.1272 149.614 30.3294 149.29 29.4268L146.658 22.1131C146.498 21.6676 146.672 21.1708 147.075 20.9227L153.655 16.8756C154.514 16.3473 154.14 15.0238 153.132 15.0238H144.757Z" fill="#FFD523"/>
<path d="M183.343 14.5231C183.554 15.1228 184.121 15.5238 184.757 15.5238H193.132C193.636 15.5238 193.823 16.1856 193.394 16.4497L186.813 20.4968C186.208 20.8689 185.947 21.6142 186.188 22.2824L188.819 29.5961C188.982 30.0474 188.477 30.4463 188.075 30.184L180.82 25.4462C180.322 25.1206 179.677 25.1208 179.179 25.4468L171.942 30.1803C171.541 30.443 171.036 30.0441 171.198 29.5926L173.828 22.2829C174.069 21.6143 173.807 20.8687 173.202 20.4968L166.611 16.4499C166.181 16.186 166.368 15.5238 166.873 15.5238H175.242C175.878 15.5238 176.445 15.1228 176.657 14.5231L179.528 6.38839C179.685 5.94364 180.314 5.94364 180.471 6.3884L183.343 14.5231Z" stroke="#17242D"/>
<path d="M183.343 14.5231C183.554 15.1228 184.121 15.5238 184.757 15.5238H193.132C193.636 15.5238 193.823 16.1856 193.394 16.4497L186.813 20.4968C186.208 20.8689 185.947 21.6142 186.188 22.2824L188.819 29.5961C188.982 30.0474 188.477 30.4463 188.075 30.184L180.82 25.4462C180.322 25.1206 179.677 25.1208 179.179 25.4468L171.942 30.1803C171.541 30.443 171.036 30.0441 171.198 29.5926L173.828 22.2829C174.069 21.6143 173.807 20.8687 173.202 20.4968L166.611 16.4499C166.181 16.186 166.368 15.5238 166.873 15.5238H175.242C175.878 15.5238 176.445 15.1228 176.657 14.5231L179.528 6.38839C179.685 5.94364 180.314 5.94364 180.471 6.3884L183.343 14.5231Z" stroke="#17242D"/>
</svg>
