<svg width="32" height="30" viewBox="0 0 32 30" fill="none" xmlns="http://www.w3.org/2000/svg">
<path d="M13.2758 25.4631C14.1139 25.8203 14.9066 25.9988 15.6541 25.9988C19.9123 25.9988 22.0414 24.1294 22.0414 20.3906C22.0414 19.1183 21.8093 18.1138 21.345 17.3772C21.0392 16.8861 20.6909 16.4732 20.3002 16.1384C19.9095 15.8035 19.5273 15.544 19.1535 15.3599C18.7798 15.1757 18.324 15.0362 17.786 14.9414C17.2481 14.8465 16.7724 14.7879 16.3591 14.7656C15.9457 14.7433 15.4106 14.7321 14.7537 14.7321C13.927 14.7321 13.3551 14.7879 13.038 14.8995C13.038 15.491 13.0352 16.3783 13.0295 17.5613C13.0238 18.7444 13.021 19.6261 13.021 20.2064C13.021 20.2957 13.0153 20.6724 13.004 21.3365C12.9927 22.0005 12.9899 22.539 12.9955 22.952C13.0012 23.3649 13.0267 23.8309 13.072 24.3499C13.1173 24.8688 13.1852 25.2399 13.2758 25.4631ZM13.038 12.9743C13.5136 13.0524 14.1309 13.0915 14.8896 13.0915C15.8183 13.0915 16.628 13.0189 17.3189 12.8738C18.0097 12.7288 18.6326 12.4804 19.1875 12.1289C19.7424 11.7773 20.1643 11.2779 20.4531 10.6305C20.7419 9.98322 20.8863 9.19081 20.8863 8.25331C20.8863 7.47206 20.7221 6.78847 20.3936 6.20253C20.0652 5.61659 19.6179 5.15901 19.0516 4.82976C18.4854 4.50052 17.8738 4.25778 17.2169 4.10153C16.5601 3.94528 15.8579 3.86715 15.1105 3.86715C14.5442 3.86715 13.8081 3.9397 12.9021 4.08479C12.9021 4.64282 12.9247 5.48546 12.97 6.61269C13.0153 7.73992 13.038 8.58813 13.038 9.15733C13.038 9.45867 13.0352 9.9051 13.0295 10.4966C13.0238 11.0881 13.021 11.529 13.021 11.8192C13.021 12.3326 13.0267 12.7176 13.038 12.9743ZM3.84766 27.8571L3.88163 26.2834C4.05151 26.2388 4.53283 26.1495 5.32558 26.0156C6.11834 25.8817 6.71857 25.731 7.12628 25.5636C7.20555 25.4297 7.27633 25.279 7.33862 25.1116C7.40091 24.9442 7.44904 24.7572 7.48302 24.5507C7.51699 24.3443 7.54814 24.1629 7.57645 24.0067C7.60476 23.8504 7.62175 23.6411 7.62741 23.3789C7.63307 23.1166 7.63591 22.9269 7.63591 22.8097V21.7131C7.63591 10.7533 7.51133 5.03345 7.26218 4.55354C7.21688 4.46425 7.0923 4.38334 6.88845 4.31079C6.6846 4.23825 6.43261 4.17686 6.1325 4.12664C5.83238 4.07642 5.55209 4.03735 5.29161 4.00945C5.03113 3.98155 4.7565 3.95644 4.46771 3.93412C4.17892 3.9118 4.00621 3.89505 3.94958 3.88389L3.88163 2.49438C4.99149 2.47206 6.91676 2.40789 9.65744 2.30186C12.3981 2.19584 14.5102 2.14282 15.9938 2.14282C16.2543 2.14282 16.6422 2.14561 17.1575 2.15119C17.6728 2.15677 18.055 2.15956 18.3042 2.15956C19.0969 2.15956 19.8699 2.23211 20.623 2.3772C21.3761 2.52229 22.1037 2.75666 22.8059 3.08032C23.508 3.40398 24.1196 3.80019 24.6406 4.26894C25.1615 4.73769 25.5805 5.32084 25.8976 6.01838C26.2148 6.71592 26.3733 7.48322 26.3733 8.32028C26.3733 8.90063 26.2799 9.43356 26.093 9.91905C25.9061 10.4045 25.6853 10.8063 25.4305 11.1244C25.1757 11.4425 24.8104 11.7634 24.3348 12.087C23.8591 12.4107 23.4458 12.6618 23.0947 12.8404C22.7436 13.0189 22.268 13.2422 21.6677 13.51C23.4118 13.9006 24.8642 14.6484 26.0251 15.7533C27.1859 16.8582 27.7663 18.2422 27.7663 19.9051C27.7663 21.0212 27.5681 22.0228 27.1717 22.9101C26.7753 23.7974 26.2459 24.5256 25.5834 25.0948C24.9209 25.664 24.1394 26.1411 23.2391 26.5262C22.3387 26.9112 21.4129 27.1819 20.4616 27.3381C19.5103 27.4944 18.5137 27.5725 17.4718 27.5725C16.9735 27.5725 16.226 27.5558 15.2294 27.5223C14.2328 27.4888 13.4853 27.4721 12.987 27.4721C11.7866 27.4721 10.0482 27.5334 7.77181 27.6562C5.49546 27.779 4.18741 27.8459 3.84766 27.8571Z" fill="#17242D"/>
</svg>
