<svg width="18" height="10" viewBox="0 0 18 10" fill="none" xmlns="http://www.w3.org/2000/svg">
<path d="M2.13662 0.350782L8.77476 6.73626L15.5472 0.493393C15.7742 0.285026 16.0795 0.169963 16.3964 0.173333C16.7132 0.176703 17.016 0.298232 17.2385 0.511379C17.4597 0.725769 17.582 1.0139 17.5788 1.31285C17.5757 1.61179 17.4472 1.89726 17.2215 2.1069L9.5161 9.22257C9.30971 9.41112 9.03271 9.51516 8.74524 9.51211C8.45777 9.50905 8.18305 9.39914 7.98072 9.20624L0.428334 1.92831C0.207176 1.71392 0.0848266 1.42579 0.0880057 1.12685C0.0911847 0.8279 0.219634 0.542434 0.445301 0.332796C0.672285 0.124429 0.977563 0.00936603 1.29446 0.012736C1.61135 0.0161059 1.91411 0.137635 2.13662 0.350782Z" fill="#828282"/>
</svg>
