<svg width="40" height="40" viewBox="0 0 40 40" fill="none" xmlns="http://www.w3.org/2000/svg">
<path d="M40 31.0234C40 35.9844 35.9766 40 31.0234 40H8.97656C4.02344 40 0 35.9766 0 31.0234V8.97656C0 4.02344 4.02344 0 8.97656 0H31.0234C35.9766 0 40 4.02344 40 8.97656V31.0234Z" fill="#F1574A"/>
<path d="M16.8906 18.4453C16.8906 18.5 16.8827 18.5391 16.8827 18.5781C16.8827 19.6172 16.8827 21.8594 16.8827 21.8594C16.8827 21.8594 21.1952 21.8594 21.4296 21.8594C21.4296 22.1953 21.0312 23.5547 19.7577 24.4141C19.0155 24.9219 18.1718 25.1484 17.289 25.2109C16.664 25.25 16.0468 25.1875 15.4452 25C13.5468 24.3906 12.1327 22.6719 11.9452 20.5859C11.8984 20.0703 11.9296 19.5547 12.0468 19.0469C12.6093 16.5781 14.9531 14.7422 17.6327 15.1406C18.8202 15.3125 19.5077 15.8125 20.1327 16.3438C20.9531 15.5234 21.7655 14.7109 22.6015 13.8672C22.3984 13.7188 21.9296 13.2422 21.0937 12.7656C19.8515 12.0469 18.4999 11.6875 17.0624 11.6719C16.789 11.6719 16.5234 11.6875 16.2499 11.6953C15.7734 11.7109 15.3124 11.7969 14.8515 11.9141C13.0156 12.3828 11.4921 13.3438 10.2968 14.8203C9.14836 16.2344 8.53118 17.8594 8.4218 19.6719C8.37493 20.4375 8.42961 21.2031 8.60149 21.9609C9.07805 24.0625 10.1796 25.7656 11.9218 27.0391C13.2734 28.0234 14.789 28.5547 16.4531 28.6484C17.3906 28.6953 18.3202 28.6094 19.2343 28.375C20.9374 27.9297 22.3515 27.0391 23.414 25.625C24.9531 23.5781 25.328 20.9531 24.8749 18.4609C22.2109 18.4453 19.5546 18.4453 16.8906 18.4453Z" fill="white"/>
<path d="M35.1562 18.5547H32.2813V15.6797V15.5938H32.1953H30.0469H29.9609V15.6797V18.5547H27.0781H27V18.6406V20.7891V20.875H27.0781H29.9609V23.7578V23.8359H30.0469H32.1953H32.2813V23.7578V20.875H35.1562H35.2422V20.7891V18.6406V18.5547H35.1562Z" fill="white"/>
</svg>
