<svg width="33" height="26" viewBox="0 0 33 26" fill="none" xmlns="http://www.w3.org/2000/svg">
<path d="M11.4981 0.677895L11.836 -0.0323486H32.1722L31.7724 0.677895C29.9296 0.677895 28.5212 0.93409 27.5481 1.44585C26.576 1.95824 25.7205 3.02677 24.9838 4.65209L17.3663 21.3156C16.8132 22.4932 16.5372 23.2801 16.5372 23.6771C16.5372 24.1381 16.8234 24.4964 17.3977 24.752C18.1354 25.0843 19.5276 25.2644 21.5754 25.2898L21.2669 26H0.592773L0.930679 25.2898C2.9987 25.2898 4.51369 25.0437 5.47667 24.551C6.43863 24.0582 7.30927 22.9796 8.08757 21.3156L15.767 4.65209C16.2379 3.62858 16.4733 2.85429 16.4733 2.32921C16.4733 1.85551 16.1861 1.48453 15.6128 1.21565C15.0415 0.946774 13.6686 0.767944 11.4981 0.677895Z" fill="#17242D"/>
</svg>
