<svg width="101" height="100" viewBox="0 0 101 100" fill="none" xmlns="http://www.w3.org/2000/svg">
<g clip-path="url(#clip0_623_75)">
<path d="M89.1263 46.7856V89.2961L75.6329 86.8233L69.6842 79.758L44.6196 52.1694L65.8999 37.1989C76.5595 51.1297 76.8956 47.7336 76.8956 47.7336C76.8956 47.7336 82.1611 39.9504 88.9162 46.6385L89.1263 46.7856Z" fill="#CCCCCC"/>
<path d="M37.6201 43.5752L81.8689 99.9611C81.6113 99.9861 81.3509 100 81.0877 100H8.74609L37.6201 43.5752Z" fill="#518EF8"/>
<path d="M65.9003 37.1988L0.0883789 92.0406V19.8025C0.0883789 15.4056 3.68927 11.8431 8.12735 11.8431H56.1199C54.0591 15.3502 61.7004 17.6011 61.7004 21.951C61.7004 26.3287 63.8145 33.6752 65.9003 37.1988Z" fill="#28B446"/>
<path d="M89.1262 89.2961V92.0407C89.1262 96.1743 85.9425 99.5731 81.8686 99.9612L44.8408 63.7827L53.8038 54.7893L74.4904 74.9995L75.6328 76.1167L89.1262 89.2961Z" fill="#F2F2F2"/>
<path d="M63.6211 44.9391L53.8042 54.7891L44.8412 63.7824L8.74617 100H8.12735C3.68927 100 0.0883789 96.4348 0.0883789 92.0406L56.1619 35.7793C57.212 37.5592 64.4333 35.757 65.9005 37.1986L68.5971 40.6307C69.9131 42.0199 62.49 43.4643 63.6211 44.9391Z" fill="#FFD837"/>
<path d="M21.0886 44.4873C14.0249 44.4873 8.27832 38.7976 8.27832 31.8039C8.27832 24.8101 14.0249 19.1205 21.0886 19.1205C24.508 19.1205 27.724 20.4404 30.145 22.8373L27.1748 25.7775C25.5477 24.1662 23.3861 23.2789 21.0886 23.2789C16.3408 23.2789 12.4785 27.1031 12.4785 31.8037C12.4785 36.5043 16.341 40.3285 21.0886 40.3285C25.112 40.3285 28.5 37.582 29.4396 33.8828H21.0886V29.7244H33.8988V31.8037C33.8986 38.7976 28.1522 44.4873 21.0886 44.4873Z" fill="white"/>
<path d="M56.1196 11.8434C60.2775 4.76289 68.0253 0 76.8958 0C90.1595 0 100.912 10.6457 100.912 23.7781C100.912 27.0717 100.234 30.207 99.0132 33.0598C97.7896 35.9125 96.0199 38.4797 93.836 40.6309C92.016 42.5465 90.3836 44.5703 88.9164 46.6385C79.3038 60.1979 76.8958 75.6785 76.8958 75.6785C76.8958 75.6785 74.2806 58.8699 63.6208 44.9391C62.4897 43.4643 61.2688 42.0197 59.9528 40.6309H59.9556C58.4883 39.1893 57.2116 37.5592 56.1616 35.7793C54.0755 32.2557 52.8799 28.1555 52.8799 23.7779C52.8799 19.4283 54.0587 15.3502 56.1196 11.8434Z" fill="#F14336"/>
<path d="M76.8962 11.1224C83.9546 11.1224 89.6753 16.7898 89.6753 23.7783C89.6753 30.7668 83.9546 36.4308 76.8962 36.4308C69.8378 36.4308 64.1138 30.7668 64.1138 23.7783C64.1138 16.7898 69.838 11.1224 76.8962 11.1224Z" fill="#7E2D25"/>
</g>
<defs>
<clipPath id="clip0_623_75">
<rect width="101" height="100" fill="white"/>
</clipPath>
</defs>
</svg>
