<svg width="28" height="25" viewBox="0 0 28 25" fill="none" xmlns="http://www.w3.org/2000/svg">
<g opacity="0.7">
<rect x="0.741211" width="26.53" height="25" rx="12.5" fill="#17242D"/>
<path d="M1.57031 12.5C1.57031 10.1823 2.29967 7.91656 3.66614 5.98942C5.03262 4.06228 6.97484 2.56026 9.24721 1.67329C11.5196 0.786328 14.02 0.554257 16.4324 1.00643C18.8447 1.4586 21.0606 2.5747 22.7998 4.2136C24.5389 5.85249 25.7234 7.94058 26.2032 10.2138C26.683 12.487 26.4368 14.8433 25.4955 16.9846C24.5543 19.1259 22.9603 20.9561 20.9153 22.2438C18.8702 23.5315 16.4658 24.2188 14.0062 24.2188C10.708 24.2188 7.5449 22.9841 5.21271 20.7864C2.88052 18.5887 1.57031 15.608 1.57031 12.5ZM24.784 12.5C24.784 10.4913 24.1519 8.52768 22.9676 6.85749C21.7834 5.18731 20.1001 3.88556 18.1307 3.11685C16.1613 2.34815 13.9943 2.14702 11.9036 2.5389C9.8129 2.93079 7.89248 3.89807 6.38518 5.31845C4.87788 6.73883 3.85139 8.5485 3.43553 10.5186C3.01966 12.4887 3.2331 14.5308 4.04885 16.3866C4.86459 18.2424 6.24601 19.8286 8.01841 20.9446C9.79081 22.0606 11.8746 22.6563 14.0062 22.6563C16.8647 22.6563 19.6061 21.5862 21.6273 19.6816C23.6485 17.7769 24.784 15.1936 24.784 12.5Z" fill="#17242D"/>
<path d="M11.7977 16.8673L16.4239 12.5001L11.7977 8.13294C11.6433 7.98657 11.5566 7.78856 11.5566 7.58216C11.5566 7.37577 11.6433 7.17776 11.7977 7.03138C11.9531 6.88587 12.1632 6.8042 12.3822 6.8042C12.6012 6.8042 12.8114 6.88587 12.9667 7.03138L18.2395 12.0001C18.3793 12.1332 18.4576 12.3129 18.4576 12.5001C18.4576 12.6874 18.3793 12.867 18.2395 13.0001L12.9667 17.9689C12.8114 18.1144 12.6012 18.1961 12.3822 18.1961C12.1632 18.1961 11.9531 18.1144 11.7977 17.9689C11.6433 17.8225 11.5566 17.6245 11.5566 17.4181C11.5566 17.2117 11.6433 17.0137 11.7977 16.8673Z" fill="white"/>
</g>
</svg>
