<svg width="21" height="18" viewBox="0 0 21 18" fill="none" xmlns="http://www.w3.org/2000/svg">
<path d="M1.63175 7.85168C1.17226 7.85175 0.799805 8.1768 0.799805 8.57772C0.799805 8.97878 1.17238 9.3039 1.63196 9.30383L17.9342 9.30199L10.5022 15.7876C10.1767 16.0716 10.1767 16.532 10.5022 16.816L10.526 16.8368C10.8514 17.1208 11.3791 17.1208 11.7045 16.8368L20.5421 9.12477C20.6407 9.03863 20.7095 8.93649 20.7483 8.82776C20.7816 8.74928 20.7998 8.66435 20.7998 8.57574C20.7998 8.49683 20.7854 8.4209 20.7587 8.34978C20.7278 8.21335 20.6517 8.08323 20.5306 7.97748L11.69 0.262799C11.3646 -0.0211934 10.8369 -0.0211934 10.5115 0.262799L10.4876 0.283617C10.1622 0.567588 10.1622 1.02803 10.4876 1.31203L17.9796 7.84984L1.63175 7.85168Z" fill="white"/>
</svg>
