<svg width="169" height="35" viewBox="0 0 169 35" fill="none" xmlns="http://www.w3.org/2000/svg">
<path d="M152.867 13.8094C153.069 14.4252 153.644 14.8415 154.292 14.8415H161.977C162.472 14.8415 162.666 15.4852 162.253 15.7586L156.103 19.8256C155.536 20.2003 155.292 20.9087 155.508 21.5528L157.942 28.8276C158.095 29.2852 157.575 29.6728 157.181 29.3955L150.664 24.8198C150.147 24.4564 149.457 24.4566 148.939 24.8205L142.44 29.3916C142.045 29.6693 141.525 29.2817 141.678 28.8239L144.111 21.5533C144.327 20.9089 144.082 20.2 143.515 19.8256L137.356 15.7588C136.942 15.4856 137.135 14.8415 137.631 14.8415H145.311C145.959 14.8415 146.534 14.4252 146.736 13.8094L149.327 5.9184C149.477 5.45968 150.126 5.45967 150.277 5.9184L152.867 13.8094Z" stroke="#17242D"/>
<path d="M152.867 13.8094C153.069 14.4252 153.644 14.8415 154.292 14.8415H161.977C162.472 14.8415 162.666 15.4852 162.253 15.7586L156.103 19.8256C155.536 20.2003 155.292 20.9087 155.508 21.5528L157.942 28.8276C158.095 29.2852 157.575 29.6728 157.181 29.3955L150.664 24.8198C150.147 24.4564 149.457 24.4566 148.939 24.8205L142.44 29.3916C142.045 29.6693 141.525 29.2817 141.678 28.8239L144.111 21.5533C144.327 20.9089 144.082 20.2 143.515 19.8256L137.356 15.7588C136.942 15.4856 137.135 14.8415 137.631 14.8415H145.311C145.959 14.8415 146.534 14.4252 146.736 13.8094L149.327 5.9184C149.477 5.45968 150.126 5.45967 150.277 5.9184L152.867 13.8094Z" stroke="#17242D"/>
<path d="M120.067 13.8094C120.269 14.4252 120.844 14.8415 121.492 14.8415H129.176C129.672 14.8415 129.865 15.4852 129.452 15.7586L123.302 19.8256C122.736 20.2003 122.491 20.9087 122.707 21.5528L125.141 28.8276C125.294 29.2852 124.775 29.6728 124.38 29.3955L117.863 24.8198C117.346 24.4564 116.656 24.4566 116.139 24.8205L109.639 29.3916C109.244 29.6693 108.724 29.2817 108.877 28.8239L111.31 21.5533C111.526 20.9089 111.281 20.2 110.714 19.8256L104.555 15.7588C104.141 15.4856 104.335 14.8415 104.83 14.8415H112.51C113.158 14.8415 113.733 14.4252 113.935 13.8094L116.526 5.9184C116.677 5.45968 117.325 5.45967 117.476 5.9184L120.067 13.8094Z" stroke="#17242D"/>
<path d="M87.2657 13.8094C87.4679 14.4252 88.0428 14.8415 88.6909 14.8415H96.3752C96.8709 14.8415 97.0645 15.4852 96.651 15.7586L90.5012 19.8256C89.9347 20.2003 89.6906 20.9087 89.9061 21.5528L92.3405 28.8276C92.4936 29.2852 91.9739 29.6728 91.579 29.3955L85.0626 24.8198C84.545 24.4564 83.8551 24.4566 83.3377 24.8205L76.8384 29.3916C76.4436 29.6693 75.9235 29.2817 76.0766 28.8239L78.5096 21.5533C78.7252 20.9089 78.4807 20.2 77.9136 19.8256L71.7542 15.7588C71.3404 15.4856 71.5338 14.8415 72.0297 14.8415H79.7095C80.3576 14.8415 80.9325 14.4252 81.1346 13.8094L83.7251 5.9184C83.8757 5.45968 84.5247 5.45967 84.6753 5.9184L87.2657 13.8094Z" stroke="#17242D"/>
<path d="M54.465 13.8094C54.6671 14.4252 55.242 14.8415 55.8901 14.8415H63.5744C64.0701 14.8415 64.2637 15.4852 63.8503 15.7586L57.7004 19.8256C57.1339 20.2003 56.8898 20.9087 57.1054 21.5528L59.5397 28.8276C59.6928 29.2852 59.1731 29.6728 58.7782 29.3955L52.2619 24.8198C51.7443 24.4564 51.0543 24.4566 50.537 24.8205L44.0376 29.3916C43.6428 29.6693 43.1227 29.2817 43.2758 28.8239L45.7088 21.5533C45.9244 20.9089 45.6799 20.2 45.1128 19.8256L38.9534 15.7588C38.5396 15.4856 38.733 14.8415 39.2289 14.8415H46.9087C47.5569 14.8415 48.1317 14.4252 48.3339 13.8094L50.9244 5.9184C51.075 5.45968 51.7239 5.45967 51.8745 5.9184L54.465 13.8094Z" stroke="#17242D"/>
<path d="M21.6642 13.8094C21.8664 14.4252 22.4412 14.8415 23.0894 14.8415H30.7737C31.2693 14.8415 31.4629 15.4852 31.0495 15.7586L24.8996 19.8256C24.3332 20.2003 24.0891 20.9087 24.3046 21.5528L26.7389 28.8276C26.8921 29.2852 26.3723 29.6728 25.9775 29.3955L19.4611 24.8198C18.9435 24.4564 18.2535 24.4566 17.7362 24.8205L11.2369 29.3916C10.842 29.6693 10.3219 29.2817 10.4751 28.8239L12.908 21.5533C13.1236 20.9089 12.8791 20.2 12.312 19.8256L6.1526 15.7588C5.73881 15.4856 5.93224 14.8415 6.4281 14.8415H14.1079C14.7561 14.8415 15.3309 14.4252 15.5331 13.8094L18.1236 5.9184C18.2742 5.45968 18.9231 5.45967 19.0737 5.9184L21.6642 13.8094Z" stroke="#17242D"/>
</svg>
