<svg width="186" height="35" viewBox="0 0 186 35" fill="none" xmlns="http://www.w3.org/2000/svg">
<path d="M23.0913 14.3415C22.6592 14.3415 22.276 14.064 22.1412 13.6535L19.5507 5.76248C19.2495 4.84502 17.9517 4.84502 17.6505 5.76248L15.06 13.6535C14.9252 14.064 14.542 14.3415 14.1099 14.3415H6.43005C5.43834 14.3415 5.05147 15.6296 5.87906 16.1761L12.0385 20.2429C12.4165 20.4925 12.5796 20.9651 12.4358 21.3947L10.0029 28.6653C9.69652 29.5808 10.7368 30.3559 11.5265 29.8006L18.0258 25.2295C18.3707 24.9869 18.8306 24.9867 19.1757 25.2291L25.6921 29.8047C26.4818 30.3592 27.5213 29.5841 27.2151 28.669L24.7807 21.3941C24.637 20.9648 24.7997 20.4925 25.1774 20.2427L31.3272 16.1756C32.1541 15.6288 31.7669 14.3415 30.7756 14.3415H23.0913Z" fill="#FFD523"/>
<path d="M23.0913 14.3415C22.6592 14.3415 22.276 14.064 22.1412 13.6535L19.5507 5.76248C19.2495 4.84502 17.9517 4.84502 17.6505 5.76248L15.06 13.6535C14.9252 14.064 14.542 14.3415 14.1099 14.3415H6.43005C5.43834 14.3415 5.05147 15.6296 5.87906 16.1761L12.0385 20.2429C12.4165 20.4925 12.5796 20.9651 12.4358 21.3947L10.0029 28.6653C9.69652 29.5808 10.7368 30.3559 11.5265 29.8006L18.0258 25.2295C18.3707 24.9869 18.8306 24.9867 19.1757 25.2291L25.6921 29.8047C26.4818 30.3592 27.5213 29.5841 27.2151 28.669L24.7807 21.3941C24.637 20.9648 24.7997 20.4925 25.1774 20.2427L31.3272 16.1756C32.1541 15.6288 31.7669 14.3415 30.7756 14.3415H23.0913Z" fill="#FFD523"/>
<path d="M60.2905 14.3415C59.8584 14.3415 59.4752 14.064 59.3404 13.6535L56.7499 5.76248C56.4487 4.84502 55.1509 4.84502 54.8497 5.76248L52.2592 13.6535C52.1244 14.064 51.7412 14.3415 51.3091 14.3415H43.6293C42.6376 14.3415 42.2507 15.6296 43.0783 16.1761L49.2377 20.2429C49.6158 20.4925 49.7788 20.9651 49.635 21.3947L47.2021 28.6653C46.8957 29.5808 47.9361 30.3559 48.7257 29.8006L55.225 25.2295C55.5699 24.9869 56.0299 24.9867 56.3749 25.2291L62.8913 29.8047C63.681 30.3592 64.7205 29.5841 64.4143 28.669L61.9799 21.3941C61.8362 20.9648 61.999 20.4925 62.3766 20.2427L68.5265 16.1756C69.3533 15.6288 68.9662 14.3415 67.9748 14.3415H60.2905Z" fill="#FFD523"/>
<path d="M60.2905 14.3415C59.8584 14.3415 59.4752 14.064 59.3404 13.6535L56.7499 5.76248C56.4487 4.84502 55.1509 4.84502 54.8497 5.76248L52.2592 13.6535C52.1244 14.064 51.7412 14.3415 51.3091 14.3415H43.6293C42.6376 14.3415 42.2507 15.6296 43.0783 16.1761L49.2377 20.2429C49.6158 20.4925 49.7788 20.9651 49.635 21.3947L47.2021 28.6653C46.8957 29.5808 47.9361 30.3559 48.7257 29.8006L55.225 25.2295C55.5699 24.9869 56.0299 24.9867 56.3749 25.2291L62.8913 29.8047C63.681 30.3592 64.7205 29.5841 64.4143 28.669L61.9799 21.3941C61.8362 20.9648 61.999 20.4925 62.3766 20.2427L68.5265 16.1756C69.3533 15.6288 68.9662 14.3415 67.9748 14.3415H60.2905Z" fill="#FFD523"/>
<path d="M97.4897 14.3415C97.0576 14.3415 96.6744 14.064 96.5396 13.6535L93.9491 5.76248C93.6479 4.84502 92.3501 4.84502 92.0489 5.76248L89.4584 13.6535C89.3236 14.064 88.9404 14.3415 88.5083 14.3415H80.8285C79.8368 14.3415 79.4499 15.6296 80.2775 16.1761L86.4369 20.2429C86.815 20.4925 86.978 20.9651 86.8342 21.3947L84.4013 28.6653C84.095 29.5808 85.1353 30.3559 85.9249 29.8006L92.4242 25.2295C92.7691 24.9869 93.2291 24.9867 93.5741 25.2291L100.091 29.8047C100.88 30.3592 101.92 29.5841 101.613 28.669L99.1791 21.3941C99.0354 20.9648 99.1982 20.4925 99.5758 20.2427L105.726 16.1756C106.553 15.6288 106.165 14.3415 105.174 14.3415H97.4897Z" fill="#FFD523"/>
<path d="M97.4897 14.3415C97.0576 14.3415 96.6744 14.064 96.5396 13.6535L93.9491 5.76248C93.6479 4.84502 92.3501 4.84502 92.0489 5.76248L89.4584 13.6535C89.3236 14.064 88.9404 14.3415 88.5083 14.3415H80.8285C79.8368 14.3415 79.4499 15.6296 80.2775 16.1761L86.4369 20.2429C86.815 20.4925 86.978 20.9651 86.8342 21.3947L84.4013 28.6653C84.095 29.5808 85.1353 30.3559 85.9249 29.8006L92.4242 25.2295C92.7691 24.9869 93.2291 24.9867 93.5741 25.2291L100.091 29.8047C100.88 30.3592 101.92 29.5841 101.613 28.669L99.1791 21.3941C99.0354 20.9648 99.1982 20.4925 99.5758 20.2427L105.726 16.1756C106.553 15.6288 106.165 14.3415 105.174 14.3415H97.4897Z" fill="#FFD523"/>
<path d="M134.691 14.3415C134.259 14.3415 133.876 14.064 133.741 13.6535L131.15 5.76248C130.849 4.84502 129.551 4.84502 129.25 5.76248L126.66 13.6535C126.525 14.064 126.142 14.3415 125.709 14.3415H118.03C117.038 14.3415 116.651 15.6296 117.479 16.1761L123.638 20.2429C124.016 20.4925 124.179 20.9651 124.035 21.3947L121.602 28.6653C121.296 29.5808 122.336 30.3559 123.126 29.8006L129.625 25.2295C129.97 24.9869 130.43 24.9867 130.775 25.2291L137.292 29.8047C138.081 30.3592 139.121 29.5841 138.815 28.669L136.38 21.3941C136.237 20.9648 136.399 20.4925 136.777 20.2427L142.927 16.1756C143.754 15.6288 143.367 14.3415 142.375 14.3415H134.691Z" fill="#FFD523"/>
<path d="M134.691 14.3415C134.259 14.3415 133.876 14.064 133.741 13.6535L131.15 5.76248C130.849 4.84502 129.551 4.84502 129.25 5.76248L126.66 13.6535C126.525 14.064 126.142 14.3415 125.709 14.3415H118.03C117.038 14.3415 116.651 15.6296 117.479 16.1761L123.638 20.2429C124.016 20.4925 124.179 20.9651 124.035 21.3947L121.602 28.6653C121.296 29.5808 122.336 30.3559 123.126 29.8006L129.625 25.2295C129.97 24.9869 130.43 24.9867 130.775 25.2291L137.292 29.8047C138.081 30.3592 139.121 29.5841 138.815 28.669L136.38 21.3941C136.237 20.9648 136.399 20.4925 136.777 20.2427L142.927 16.1756C143.754 15.6288 143.367 14.3415 142.375 14.3415H134.691Z" fill="#FFD523"/>
<path d="M170.465 13.8094C170.667 14.4252 171.242 14.8415 171.89 14.8415H179.574C180.07 14.8415 180.264 15.4852 179.85 15.7586L173.7 19.8257C173.134 20.2003 172.89 20.9088 173.105 21.5528L175.54 28.8277C175.693 29.2852 175.173 29.6728 174.778 29.3955L168.262 24.8199C167.744 24.4564 167.054 24.4567 166.537 24.8205L160.038 29.3916C159.643 29.6693 159.123 29.2817 159.276 28.824L161.709 21.5534C161.924 20.9089 161.68 20.2 161.113 19.8256L154.953 15.7588C154.54 15.4856 154.733 14.8415 155.229 14.8415H162.909C163.557 14.8415 164.132 14.4252 164.334 13.8094L166.924 5.91843C167.075 5.45971 167.724 5.4597 167.874 5.91843L170.465 13.8094Z" stroke="#17242D"/>
<path d="M170.465 13.8094C170.667 14.4252 171.242 14.8415 171.89 14.8415H179.574C180.07 14.8415 180.264 15.4852 179.85 15.7586L173.7 19.8257C173.134 20.2003 172.89 20.9088 173.105 21.5528L175.54 28.8277C175.693 29.2852 175.173 29.6728 174.778 29.3955L168.262 24.8199C167.744 24.4564 167.054 24.4567 166.537 24.8205L160.038 29.3916C159.643 29.6693 159.123 29.2817 159.276 28.824L161.709 21.5534C161.924 20.9089 161.68 20.2 161.113 19.8256L154.953 15.7588C154.54 15.4856 154.733 14.8415 155.229 14.8415H162.909C163.557 14.8415 164.132 14.4252 164.334 13.8094L166.924 5.91843C167.075 5.45971 167.724 5.4597 167.874 5.91843L170.465 13.8094Z" stroke="white"/>
</svg>
