<svg width="40" height="40" viewBox="0 0 40 40" fill="none" xmlns="http://www.w3.org/2000/svg">
<path d="M7 40L33 40C36.866 40 40 36.866 40 33L40 7C40 3.13401 36.866 0 33 0L7 0C3.13401 0 0 3.13401 0 7L0 33C0 36.866 3.13401 40 7 40Z" fill="#00AADE"/>
<path d="M29.5 12.9995C30.0967 12.6928 30.6255 12.2691 31.055 11.7537C31.4845 11.2383 31.8059 10.6417 32 9.99954C31 10.9995 28.875 11.3308 28.875 11.3308C28.1402 10.4279 27.1135 9.80973 25.9718 9.58278C24.8301 9.35582 23.6449 9.53434 22.6207 10.0875C21.5965 10.6407 20.7975 11.534 20.3613 12.6132C19.9251 13.6924 19.8791 14.89 20.2312 15.9995H20C17.9633 15.8645 15.9773 15.3055 14.1692 14.3584C12.3611 13.4113 10.7707 12.0969 9.5 10.4995C9.5 10.4995 6.5 14.4995 11 17.4995C11 17.4995 9 17.4995 8.5 16.9995C8.5 16.9995 8 19.9995 12.5 21.9995C12.186 22.1426 11.845 22.2166 11.5 22.2166C11.155 22.2166 10.814 22.1426 10.5 21.9995C10.5 23.9308 12.5125 25.4995 15 25.4995C15 26.8808 11.6438 27.9995 7.5 27.9995C14 32.4995 29.5 31.4995 30.5 14.4995L33 11.9995L29.5 12.9995Z" fill="white"/>
</svg>
