<svg width="32" height="33" viewBox="0 0 32 33" fill="none" xmlns="http://www.w3.org/2000/svg">
<g clip-path="url(#clip0_335_681)">
<path d="M3.91197 6.73322C3.49902 6.7109 3.24791 6.68858 3.15862 6.66626L3.1084 5.19305C3.25349 5.18188 3.4767 5.1763 3.77804 5.1763C4.44768 5.1763 5.07268 5.19863 5.65304 5.24327C7.12626 5.32139 8.05259 5.36046 8.43206 5.36046C9.39188 5.36046 10.3294 5.34372 11.2446 5.31023C12.5392 5.26559 13.3539 5.23769 13.6888 5.22653C14.3138 5.22653 14.7937 5.21537 15.1285 5.19305L15.1117 5.42742L15.1452 6.49885V6.64952C14.4756 6.74996 13.7836 6.80019 13.0693 6.80019C12.3997 6.80019 11.9588 6.9397 11.7468 7.21871C11.6017 7.37496 11.5292 8.11157 11.5292 9.42854C11.5292 9.57363 11.5319 9.75499 11.5375 9.97262C11.5431 10.1903 11.5459 10.3326 11.5459 10.3995L11.5626 14.2332L11.797 18.9207C11.864 20.3047 12.1486 21.4319 12.6508 22.3024C13.0414 22.9609 13.5771 23.4743 14.258 23.8426C15.2401 24.3671 16.2278 24.6294 17.2211 24.6294C18.3818 24.6294 19.4477 24.4732 20.4187 24.1607C21.0437 23.9598 21.5961 23.6752 22.076 23.3069C22.6117 22.9051 22.9745 22.548 23.1642 22.2355C23.566 21.6105 23.8617 20.9743 24.0515 20.327C24.2859 19.5122 24.403 18.2343 24.403 16.4933C24.403 15.6116 24.3835 14.8973 24.3444 14.3504C24.3054 13.8035 24.244 13.1199 24.1603 12.2996C24.0766 11.4793 24.0013 10.5893 23.9343 9.62943L23.8673 8.64171C23.8115 7.89394 23.6776 7.40287 23.4655 7.16849C23.0861 6.77787 22.6564 6.58813 22.1765 6.5993L20.5024 6.63278L20.268 6.58255L20.3015 5.14282H21.7077L25.1396 5.31023C25.9879 5.34372 27.0816 5.28791 28.4209 5.14282L28.7222 5.1763C28.7892 5.60041 28.8227 5.88501 28.8227 6.0301C28.8227 6.10822 28.8004 6.28121 28.7557 6.54907C28.2535 6.683 27.7847 6.75555 27.3495 6.76671C26.5347 6.88947 26.0939 6.98434 26.0269 7.0513C25.8595 7.21871 25.7758 7.44751 25.7758 7.73769C25.7758 7.81581 25.7842 7.96648 25.8009 8.1897C25.8177 8.41291 25.826 8.5859 25.826 8.70867C25.9153 8.92072 26.0381 11.1305 26.1943 15.3381C26.2613 17.5145 26.1776 19.2109 25.9432 20.4274C25.7758 21.2756 25.547 21.9564 25.2568 22.4698C24.8327 23.1953 24.2077 23.8817 23.3818 24.529C22.5448 25.1651 21.5292 25.6618 20.335 26.0189C19.1184 26.3872 17.6955 26.5714 16.066 26.5714C14.2021 26.5714 12.6173 26.3147 11.3115 25.8013C9.9834 25.2767 8.98451 24.5959 8.31487 23.7589C7.63407 22.9107 7.1709 21.8225 6.92536 20.4944C6.74679 19.6015 6.65751 18.279 6.65751 16.5267V10.952C6.65751 8.85376 6.56264 7.66514 6.37291 7.38613C6.09389 6.98434 5.27358 6.76671 3.91197 6.73322ZM28.8227 30.3214V29.25C28.8227 29.0937 28.7725 28.9654 28.672 28.8649C28.5716 28.7645 28.4432 28.7142 28.287 28.7142H3.64411C3.48786 28.7142 3.35951 28.7645 3.25907 28.8649C3.15862 28.9654 3.1084 29.0937 3.1084 29.25V30.3214C3.1084 30.4776 3.15862 30.606 3.25907 30.7064C3.35951 30.8069 3.48786 30.8571 3.64411 30.8571H28.287C28.4432 30.8571 28.5716 30.8069 28.672 30.7064C28.7725 30.606 28.8227 30.4776 28.8227 30.3214Z" fill="#17242D"/>
</g>
<defs>
<clipPath id="clip0_335_681">
<rect width="30.4419" height="33" fill="white" transform="translate(0.96582)"/>
</clipPath>
</defs>
</svg>
