<svg width="10" height="6" viewBox="0 0 10 6" fill="none" xmlns="http://www.w3.org/2000/svg">
<path d="M7.12633 5.87833C7.09283 5.84009 7.06624 5.79459 7.0481 5.74447C7.02995 5.69434 7.02061 5.64058 7.02061 5.58628C7.02061 5.53198 7.02995 5.47821 7.0481 5.42809C7.06624 5.37796 7.09283 5.33247 7.12633 5.29423L8.77031 3.40208L0.357388 3.40208C0.262603 3.40208 0.1717 3.35874 0.104677 3.2816C0.0376533 3.20446 0 3.09984 0 2.99074C0 2.88165 0.0376533 2.77703 0.104677 2.69989C0.1717 2.62274 0.262603 2.57941 0.357388 2.57941L8.76316 2.57941L7.12633 0.699598C7.05976 0.622529 7.0224 0.518275 7.0224 0.409606C7.0224 0.300937 7.05976 0.196683 7.12633 0.119614C7.19329 0.0430017 7.28387 0 7.37828 0C7.4727 0 7.56328 0.0430017 7.63024 0.119614L9.90323 2.73572C9.93383 2.7695 9.95817 2.81005 9.9748 2.85494C9.99143 2.89982 10 2.94812 10 2.99691C10 3.04571 9.99143 3.094 9.9748 3.13889C9.95817 3.18378 9.93383 3.22433 9.90323 3.25811L7.63382 5.87833C7.60059 5.91688 7.56107 5.94748 7.51751 5.96837C7.47396 5.98925 7.42725 6 7.38007 6C7.33289 6 7.28618 5.98925 7.24263 5.96837C7.19908 5.94748 7.15955 5.91688 7.12633 5.87833Z" fill="#008665"/>
</svg>
