<svg width="703" height="378" viewBox="0 0 703 378" fill="none" xmlns="http://www.w3.org/2000/svg">
<g clip-path="url(#clip0)">
<rect width="702.434" height="378" fill="#E5EDE8"/>
<path d="M582.437 305.031L349.394 237.122L469.391 69.3398L702.434 137.249L582.437 305.031Z" fill="#C4C4C4"/>
<path d="M617.937 207.558L441.517 156.149C441.184 156.052 440.926 155.875 440.798 155.657C440.671 155.438 440.684 155.196 440.836 154.984C440.988 154.772 441.265 154.607 441.607 154.526C441.949 154.444 442.328 154.453 442.661 154.55L619.081 205.959C619.413 206.056 619.671 206.233 619.799 206.451C619.927 206.67 619.913 206.911 619.762 207.124C619.61 207.336 619.333 207.501 618.99 207.582C618.648 207.664 618.269 207.655 617.937 207.558Z" fill="white"/>
<path d="M627.747 193.842L451.327 142.433C451.163 142.385 451.014 142.316 450.891 142.232C450.768 142.147 450.672 142.048 450.609 141.94C450.545 141.832 450.516 141.717 450.523 141.602C450.529 141.486 450.571 141.373 450.646 141.268C450.721 141.163 450.828 141.068 450.96 140.989C451.093 140.911 451.248 140.849 451.418 140.809C451.587 140.769 451.767 140.75 451.948 140.754C452.129 140.758 452.306 140.785 452.471 140.833L628.891 192.242C629.056 192.29 629.204 192.358 629.327 192.443C629.45 192.527 629.546 192.626 629.609 192.734C629.673 192.843 629.702 192.958 629.696 193.073C629.689 193.188 629.647 193.302 629.572 193.407C629.497 193.512 629.39 193.606 629.258 193.685C629.125 193.764 628.97 193.825 628.801 193.865C628.631 193.906 628.451 193.925 628.27 193.92C628.089 193.916 627.912 193.889 627.747 193.842Z" fill="white"/>
<path d="M637.557 180.125L461.137 128.716C460.973 128.668 460.825 128.6 460.701 128.515C460.578 128.431 460.482 128.332 460.419 128.224C460.356 128.115 460.326 128 460.333 127.885C460.339 127.77 460.381 127.656 460.456 127.551C460.532 127.446 460.638 127.352 460.771 127.273C460.903 127.194 461.058 127.133 461.228 127.093C461.397 127.052 461.578 127.034 461.758 127.038C461.939 127.042 462.117 127.069 462.281 127.116L638.701 178.526C639.033 178.623 639.291 178.8 639.418 179.018C639.545 179.236 639.531 179.478 639.38 179.69C639.228 179.902 638.951 180.066 638.61 180.148C638.268 180.23 637.89 180.221 637.557 180.125Z" fill="white"/>
<path d="M647.367 166.408L470.947 114.999C470.783 114.951 470.635 114.883 470.512 114.799C470.388 114.714 470.292 114.615 470.229 114.507C470.166 114.399 470.137 114.284 470.143 114.168C470.149 114.053 470.191 113.939 470.266 113.834C470.342 113.729 470.448 113.635 470.581 113.556C470.713 113.477 470.868 113.416 471.038 113.376C471.207 113.335 471.388 113.317 471.568 113.321C471.749 113.325 471.927 113.352 472.091 113.4L648.511 164.809C648.676 164.857 648.824 164.925 648.947 165.009C649.07 165.094 649.166 165.193 649.23 165.301C649.293 165.409 649.322 165.524 649.316 165.64C649.309 165.755 649.267 165.869 649.192 165.974C649.117 166.079 649.01 166.173 648.878 166.252C648.746 166.331 648.59 166.392 648.421 166.432C648.251 166.473 648.071 166.491 647.89 166.487C647.71 166.483 647.532 166.456 647.367 166.408Z" fill="white"/>
<path d="M609.071 219.954L432.651 168.545C432.487 168.497 432.339 168.429 432.215 168.345C432.092 168.26 431.996 168.161 431.933 168.053C431.869 167.945 431.84 167.83 431.847 167.714C431.853 167.599 431.895 167.486 431.97 167.381C432.045 167.275 432.152 167.181 432.284 167.102C432.417 167.024 432.572 166.962 432.742 166.922C432.911 166.882 433.091 166.863 433.272 166.867C433.453 166.871 433.631 166.898 433.795 166.946L610.215 218.355C610.548 218.452 610.806 218.629 610.934 218.847C611.061 219.066 611.048 219.308 610.896 219.52C610.745 219.732 610.467 219.897 610.125 219.978C609.783 220.06 609.404 220.051 609.071 219.954V219.954Z" fill="white"/>
<path d="M638.531 146.287L500.725 106.13C499.949 105.917 499.324 105.529 498.967 105.041C498.61 104.553 498.546 103.997 498.788 103.481C498.937 103.2 499.175 102.943 499.49 102.725C499.804 102.507 500.186 102.333 500.612 102.216C501.037 102.098 501.497 102.039 501.961 102.042C502.425 102.044 502.883 102.109 503.305 102.232L641.069 142.377C641.859 142.591 642.496 142.985 642.859 143.481C643.221 143.978 643.283 144.542 643.033 145.066C642.88 145.343 642.638 145.596 642.323 145.811C642.008 146.025 641.627 146.195 641.204 146.31C640.78 146.424 640.324 146.482 639.864 146.478C639.404 146.474 638.95 146.409 638.531 146.287Z" fill="white"/>
<path d="M108.287 137.249L341.33 69.3398L461.328 237.122L228.285 305.031L108.287 137.249Z" fill="#C4C4C4"/>
<path d="M192.784 207.558L369.204 156.149C369.369 156.101 369.517 156.033 369.64 155.949C369.764 155.864 369.86 155.765 369.923 155.657C369.986 155.549 370.015 155.433 370.009 155.318C370.002 155.203 369.96 155.089 369.885 154.984C369.81 154.879 369.703 154.785 369.571 154.706C369.439 154.627 369.283 154.566 369.114 154.526C368.944 154.485 368.764 154.467 368.583 154.471C368.403 154.475 368.225 154.502 368.06 154.55L191.64 205.959C191.476 206.007 191.328 206.075 191.204 206.159C191.081 206.244 190.985 206.343 190.922 206.451C190.859 206.559 190.83 206.674 190.836 206.79C190.842 206.905 190.884 207.019 190.959 207.124C191.035 207.229 191.141 207.323 191.274 207.402C191.406 207.48 191.561 207.542 191.731 207.582C191.9 207.622 192.081 207.641 192.261 207.637C192.442 207.633 192.62 207.606 192.784 207.558Z" fill="white"/>
<path d="M182.974 193.842L359.394 142.433C359.727 142.336 359.985 142.159 360.113 141.94C360.24 141.722 360.227 141.48 360.075 141.268C359.923 141.056 359.646 140.891 359.304 140.809C358.961 140.728 358.583 140.736 358.25 140.833L181.83 192.242C181.666 192.29 181.518 192.358 181.394 192.443C181.271 192.527 181.175 192.626 181.112 192.734C181.049 192.843 181.019 192.958 181.026 193.073C181.032 193.188 181.074 193.302 181.149 193.407C181.224 193.512 181.331 193.607 181.464 193.685C181.596 193.764 181.751 193.825 181.921 193.866C182.09 193.906 182.27 193.925 182.451 193.92C182.632 193.916 182.81 193.89 182.974 193.842H182.974Z" fill="white"/>
<path d="M173.164 180.125L349.584 128.716C349.916 128.619 350.175 128.442 350.303 128.224C350.43 128.005 350.417 127.763 350.265 127.551C350.113 127.339 349.836 127.174 349.494 127.093C349.151 127.011 348.772 127.02 348.44 127.117L172.02 178.526C171.688 178.623 171.43 178.8 171.303 179.018C171.175 179.236 171.189 179.478 171.341 179.69C171.492 179.902 171.769 180.067 172.111 180.148C172.453 180.23 172.832 180.222 173.164 180.125Z" fill="white"/>
<path d="M163.354 166.408L339.774 114.999C339.939 114.951 340.087 114.883 340.21 114.799C340.333 114.714 340.429 114.615 340.492 114.507C340.556 114.399 340.585 114.284 340.579 114.168C340.572 114.053 340.53 113.939 340.455 113.834C340.38 113.729 340.273 113.635 340.141 113.556C340.008 113.477 339.853 113.416 339.684 113.376C339.514 113.335 339.334 113.317 339.153 113.321C338.972 113.325 338.795 113.352 338.63 113.4L162.21 164.809C161.878 164.906 161.619 165.083 161.492 165.301C161.364 165.52 161.377 165.762 161.529 165.974C161.681 166.186 161.958 166.351 162.3 166.432C162.643 166.514 163.022 166.505 163.354 166.408H163.354Z" fill="white"/>
<path d="M201.65 219.955L378.07 168.546C378.402 168.449 378.661 168.272 378.788 168.053C378.916 167.835 378.903 167.593 378.751 167.381C378.599 167.169 378.322 167.004 377.98 166.922C377.637 166.841 377.258 166.849 376.926 166.946L200.506 218.355C200.341 218.403 200.193 218.471 200.07 218.556C199.947 218.64 199.851 218.739 199.788 218.848C199.724 218.956 199.695 219.071 199.702 219.186C199.708 219.301 199.75 219.415 199.825 219.52C199.9 219.625 200.007 219.72 200.139 219.798C200.272 219.877 200.427 219.938 200.597 219.979C200.766 220.019 200.946 220.038 201.127 220.033C201.308 220.029 201.485 220.003 201.65 219.955H201.65Z" fill="white"/>
<path d="M172.19 146.287L309.996 106.13C310.772 105.917 311.398 105.529 311.755 105.041C312.112 104.553 312.175 103.997 311.933 103.481C311.785 103.2 311.546 102.943 311.232 102.725C310.918 102.507 310.536 102.333 310.11 102.216C309.684 102.098 309.224 102.039 308.76 102.042C308.297 102.044 307.839 102.109 307.417 102.232L169.652 142.377C168.863 142.591 168.225 142.985 167.863 143.481C167.5 143.977 167.438 144.542 167.689 145.066C167.842 145.343 168.083 145.596 168.398 145.811C168.713 146.025 169.094 146.195 169.518 146.31C169.941 146.424 170.398 146.482 170.858 146.478C171.318 146.474 171.771 146.409 172.19 146.287Z" fill="white"/>
<path d="M83.6702 340.006C81.4981 338.505 80.2326 336.56 80.0996 334.519C79.9666 332.478 80.9748 330.473 82.9441 328.862C83.3443 328.537 84.1545 328.919 83.7537 329.244C81.9155 330.742 80.9767 332.61 81.1066 334.51C81.2365 336.411 82.4267 338.22 84.4623 339.609C84.9041 339.912 84.1094 340.307 83.6701 340.006H83.6702Z" fill="white"/>
<path d="M72.0907 356.019C78.6261 356.222 85.0411 354.845 90.0566 352.163C90.5531 351.897 91.1737 352.403 90.6777 352.668C85.4504 355.453 78.77 356.878 71.9698 356.657C71.3217 356.636 71.4461 355.998 72.0907 356.019Z" fill="white"/>
<path d="M107.156 328.804C107.807 329.496 108.717 330.074 109.805 330.487C110.892 330.899 112.124 331.133 113.388 331.167C114.036 331.183 113.911 331.821 113.267 331.805C111.87 331.763 110.511 331.504 109.308 331.05C108.105 330.596 107.094 329.961 106.364 329.2C106.286 329.132 106.251 329.047 106.267 328.964C106.283 328.88 106.348 328.803 106.449 328.749C106.555 328.697 106.688 328.673 106.82 328.683C106.953 328.694 107.073 328.737 107.156 328.804Z" fill="white"/>
<path d="M578.747 306.441H230.278V55.5571H578.747V306.441Z" fill="white"/>
<path d="M578.747 306.441H230.278V55.5571H578.747V306.441ZM232.152 305.245H576.874V56.753H232.152L232.152 305.245Z" fill="#CACACA"/>
<path d="M536.413 173.027H272.612C272.366 173.027 272.123 172.996 271.895 172.936C271.668 172.876 271.461 172.788 271.287 172.677C271.114 172.566 270.976 172.434 270.881 172.289C270.787 172.144 270.739 171.988 270.739 171.831C270.739 171.674 270.787 171.519 270.881 171.373C270.976 171.228 271.114 171.097 271.287 170.986C271.461 170.874 271.668 170.786 271.895 170.726C272.123 170.666 272.366 170.635 272.612 170.635H536.413C536.91 170.635 537.386 170.761 537.738 170.986C538.089 171.21 538.286 171.514 538.286 171.831C538.286 172.148 538.089 172.452 537.738 172.677C537.386 172.901 536.91 173.027 536.413 173.027Z" fill="#008665"/>
<path d="M536.413 152.517H272.612C272.115 152.517 271.639 152.391 271.287 152.166C270.936 151.942 270.739 151.638 270.739 151.321C270.739 151.003 270.936 150.699 271.287 150.475C271.639 150.251 272.115 150.125 272.612 150.125H536.413C536.91 150.125 537.386 150.251 537.738 150.475C538.089 150.699 538.286 151.003 538.286 151.321C538.286 151.638 538.089 151.942 537.738 152.166C537.386 152.391 536.91 152.517 536.413 152.517Z" fill="#008665"/>
<path d="M536.413 132.006H272.612C272.366 132.006 272.123 131.975 271.895 131.915C271.668 131.855 271.461 131.767 271.287 131.656C271.114 131.545 270.976 131.413 270.881 131.268C270.787 131.123 270.739 130.967 270.739 130.81C270.739 130.653 270.787 130.498 270.881 130.352C270.976 130.207 271.114 130.076 271.287 129.965C271.461 129.853 271.668 129.765 271.895 129.705C272.123 129.645 272.366 129.614 272.612 129.614H536.413C536.91 129.614 537.386 129.74 537.738 129.965C538.089 130.189 538.286 130.493 538.286 130.81C538.286 131.127 538.089 131.431 537.738 131.656C537.386 131.88 536.91 132.006 536.413 132.006Z" fill="#008665"/>
<path d="M536.413 111.495H272.612C272.115 111.495 271.639 111.369 271.287 111.145C270.936 110.921 270.739 110.617 270.739 110.299C270.739 109.982 270.936 109.678 271.287 109.454C271.639 109.23 272.115 109.104 272.612 109.104H536.413C536.91 109.104 537.386 109.23 537.738 109.454C538.089 109.678 538.286 109.982 538.286 110.299C538.286 110.617 538.089 110.921 537.738 111.145C537.386 111.369 536.91 111.495 536.413 111.495Z" fill="#008665"/>
<path d="M536.413 191.563H272.612C272.115 191.563 271.639 191.437 271.287 191.213C270.936 190.988 270.739 190.684 270.739 190.367C270.739 190.05 270.936 189.746 271.287 189.521C271.639 189.297 272.115 189.171 272.612 189.171H536.413C536.91 189.171 537.386 189.297 537.738 189.521C538.089 189.746 538.286 190.05 538.286 190.367C538.286 190.684 538.089 190.988 537.738 191.213C537.386 191.437 536.91 191.563 536.413 191.563Z" fill="#008665"/>
<path d="M536.413 283.583H272.612C272.115 283.583 271.639 283.457 271.287 283.233C270.936 283.009 270.739 282.704 270.739 282.387C270.739 282.07 270.936 281.766 271.287 281.542C271.639 281.317 272.115 281.191 272.612 281.191H536.413C536.91 281.191 537.386 281.317 537.738 281.542C538.089 281.766 538.286 282.07 538.286 282.387C538.286 282.704 538.089 283.009 537.738 283.233C537.386 283.457 536.91 283.583 536.413 283.583Z" fill="#008665"/>
<path d="M473.22 264.387H335.805C334.887 264.386 334.006 264.153 333.357 263.738C332.707 263.324 332.342 262.762 332.341 262.175V210.579C332.342 209.993 332.707 209.431 333.357 209.016C334.006 208.602 334.887 208.369 335.805 208.368H473.22C474.139 208.369 475.019 208.602 475.669 209.016C476.318 209.431 476.683 209.993 476.684 210.579V262.175C476.683 262.762 476.318 263.324 475.669 263.738C475.019 264.153 474.139 264.386 473.22 264.387Z" fill="white"/>
<path d="M427.33 234.911C426.631 234.433 425.788 234.049 424.852 233.783C423.916 233.517 422.905 233.374 421.881 233.363C420.856 233.351 419.839 233.471 418.888 233.715C417.938 233.96 417.074 234.323 416.348 234.785L377.676 259.47C376.654 260.121 375.271 260.487 373.828 260.488C372.384 260.49 370.999 260.126 369.974 259.478L364.247 255.829C363.538 255.377 362.698 255.018 361.772 254.773C360.847 254.529 359.855 254.403 358.854 254.403C357.852 254.403 356.86 254.529 355.935 254.773C355.01 255.018 354.169 255.377 353.461 255.829L342.376 262.913H466.649V261.903L427.33 234.911Z" fill="#008665"/>
<path d="M473.22 264.387H335.805C334.887 264.386 334.006 264.153 333.357 263.738C332.707 263.324 332.342 262.762 332.341 262.175V210.579C332.342 209.993 332.707 209.431 333.357 209.016C334.006 208.602 334.887 208.369 335.805 208.368H473.22C474.139 208.369 475.019 208.602 475.669 209.016C476.318 209.431 476.683 209.993 476.684 210.579V262.175C476.683 262.762 476.318 263.324 475.669 263.738C475.019 264.153 474.139 264.386 473.22 264.387ZM335.805 209.842C335.499 209.842 335.205 209.92 334.989 210.058C334.772 210.196 334.651 210.384 334.65 210.579V262.175C334.651 262.371 334.772 262.558 334.989 262.696C335.205 262.835 335.499 262.912 335.805 262.912H473.22C473.526 262.912 473.82 262.835 474.036 262.696C474.253 262.558 474.374 262.371 474.375 262.175V210.579C474.374 210.384 474.253 210.196 474.036 210.058C473.82 209.92 473.526 209.842 473.22 209.842L335.805 209.842Z" fill="#008665"/>
<path d="M141.937 255.762C142.285 254.978 142.36 254.155 142.156 253.35C141.952 252.546 141.474 251.78 140.756 251.106C140.038 250.432 139.097 249.867 138 249.45C136.903 249.034 135.676 248.776 134.406 248.694L127.206 229.426L116.17 236.932L124.699 254.079C124.627 255.45 125.345 256.791 126.718 257.847C128.09 258.903 130.022 259.6 132.147 259.808C134.271 260.015 136.442 259.718 138.246 258.972C140.05 258.227 141.364 257.085 141.937 255.762Z" fill="#FFB6B6"/>
<path d="M122.69 248.773C122.17 248.662 121.691 248.483 121.286 248.247C120.881 248.01 120.558 247.722 120.339 247.401L105.073 223.565C101.18 217.851 100.671 211.428 103.641 205.492L113.423 185.934C113.572 184.882 114.044 183.859 114.813 182.924C115.581 181.988 116.631 181.159 117.902 180.483C119.173 179.807 120.64 179.297 122.22 178.983C123.8 178.669 125.461 178.557 127.109 178.654C128.757 178.75 130.359 179.052 131.823 179.544C133.287 180.036 134.585 180.707 135.643 181.519C136.701 182.331 137.497 183.269 137.987 184.277C138.477 185.286 138.65 186.347 138.498 187.398L125.525 218.894L134.214 243.629C134.35 244.134 134.239 244.654 133.897 245.118C133.556 245.582 132.999 245.968 132.303 246.223L125.862 248.572C125.171 248.824 124.377 248.935 123.584 248.891C123.28 248.874 122.98 248.835 122.69 248.773Z" fill="#008665"/>
<path d="M176.988 370.898H187.635L192.7 344.685H176.986L176.988 370.898Z" fill="#FFB6B6"/>
<path d="M174.272 368.679L195.24 368.679H195.241C198.784 368.679 202.183 369.577 204.689 371.177C207.195 372.777 208.603 374.946 208.603 377.208V377.485L174.273 377.486L174.272 368.679Z" fill="#2F2E41"/>
<path d="M117.066 370.898H127.712L132.777 344.685H117.063L117.066 370.898Z" fill="#FFB6B6"/>
<path d="M114.349 368.679L135.317 368.679H135.318C138.862 368.679 142.26 369.577 144.766 371.177C147.272 372.777 148.68 374.946 148.68 377.208V377.485L114.35 377.486L114.349 368.679Z" fill="#2F2E41"/>
<path d="M183.399 238.679L120.961 235.172C120.961 235.172 114.792 260.298 115.66 270.276C116.529 280.254 117.397 295.776 117.397 295.776L110.45 363.405L137.371 361.188L140.845 305.199L152.135 274.711L165.162 313.514L173.846 363.405L197.294 361.742L189.478 301.319C189.478 301.319 196.426 246.994 183.399 238.679Z" fill="#2F2E41"/>
<path d="M158.214 164.952C167.807 164.952 175.583 159.988 175.583 153.865C175.583 147.742 167.807 142.778 158.214 142.778C148.622 142.778 140.845 147.742 140.845 153.865C140.845 159.988 148.622 164.952 158.214 164.952Z" fill="#FFB8B8"/>
<path d="M177.235 178.62L164.829 172.317C164.829 172.317 151.395 165.7 143.515 170.592L139.977 173.821C139.977 173.821 119.917 178.62 119.917 184.718L120.871 218.168C120.871 218.168 113.923 235.353 124.345 236.461L185.051 239.598L184.267 207.636L177.235 178.62Z" fill="#008665"/>
<path d="M144.753 163.566C144.753 163.566 126.516 155.251 136.069 145.273C142.696 138.351 156.429 138.898 164.219 139.883C166.317 140.131 168.29 140.7 169.967 141.542C171.645 142.385 172.976 143.475 173.846 144.718C175.149 146.659 175.149 148.599 169.938 148.599C159.517 148.599 164.728 153.588 164.728 153.588C164.728 153.588 157.78 154.697 159.517 158.577C161.254 162.457 144.753 163.566 144.753 163.566Z" fill="#2F2E41"/>
<path d="M239.899 237.041C239.575 236.252 238.985 235.519 238.169 234.892C237.353 234.265 236.332 233.76 235.178 233.412C234.023 233.064 232.763 232.882 231.486 232.879C230.21 232.875 228.948 233.051 227.788 233.393L206.258 219.126L202.722 229.17L223.71 241.177C224.738 242.382 226.423 243.304 228.446 243.769C230.468 244.234 232.687 244.209 234.683 243.699C236.678 243.189 238.311 242.229 239.273 241.002C240.234 239.775 240.457 238.365 239.899 237.041H239.899Z" fill="#FFB6B6"/>
<path d="M217.758 237.257C217.222 237.331 216.667 237.332 216.129 237.259C215.592 237.187 215.085 237.043 214.641 236.837L182.528 221.251C174.629 217.59 169.082 212.222 166.919 206.145L159.788 186.125C159.078 185.17 158.67 184.136 158.587 183.081C158.504 182.026 158.748 180.97 159.305 179.975C159.862 178.98 160.721 178.065 161.833 177.282C162.944 176.499 164.287 175.864 165.783 175.413C167.28 174.961 168.901 174.703 170.555 174.652C172.208 174.601 173.861 174.759 175.419 175.116C176.976 175.474 178.408 176.024 179.633 176.735C180.857 177.446 181.85 178.304 182.554 179.26L196.432 210.598L223.593 229.091C224.113 229.482 224.431 229.966 224.505 230.476C224.58 230.987 224.407 231.499 224.011 231.945L220.331 236.056C219.936 236.497 219.34 236.85 218.622 237.069C218.347 237.154 218.057 237.217 217.758 237.257Z" fill="#008665"/>
<path d="M331.746 377.628H0.868445C0.638119 377.628 0.417226 377.57 0.254361 377.466C0.091496 377.362 0 377.221 0 377.074C0 376.927 0.091496 376.786 0.254361 376.682C0.417226 376.578 0.638119 376.519 0.868445 376.519H331.746C331.976 376.519 332.197 376.578 332.36 376.682C332.523 376.786 332.615 376.927 332.615 377.074C332.615 377.221 332.523 377.362 332.36 377.466C332.197 377.57 331.976 377.628 331.746 377.628Z" fill="#CACACA"/>
<path d="M507.672 89.7837H301.61C300.462 89.7995 299.345 89.5454 298.471 89.0698C297.597 88.5941 297.027 87.9301 296.87 87.2039C296.805 86.8032 296.872 86.3983 297.068 86.0153C297.264 85.6324 297.583 85.2799 298.006 84.9808C298.428 84.6816 298.945 84.4425 299.521 84.2787C300.098 84.115 300.722 84.0304 301.353 84.0303H507.352C508.519 84.0108 509.656 84.2675 510.544 84.751C511.432 85.2345 512.008 85.9107 512.161 86.6492C512.217 87.0471 512.143 87.4481 511.943 87.8266C511.742 88.2051 511.421 88.5529 510.999 88.8478C510.576 89.1426 510.062 89.3781 509.49 89.5393C508.917 89.7004 508.298 89.7836 507.672 89.7837Z" fill="#008665"/>
</g>
<defs>
<clipPath id="clip0">
<rect width="702.434" height="378" fill="white"/>
</clipPath>
</defs>
</svg>
