<svg width="685" height="378" viewBox="0 0 685 378" fill="none" xmlns="http://www.w3.org/2000/svg">
<rect x="0.645508" width="684.354" height="378" fill="#E5EDE8"/>
<path d="M581.607 378C638.709 378 685 372.488 685 365.689C685 358.89 638.709 353.378 581.607 353.378C524.505 353.378 478.214 358.89 478.214 365.689C478.214 372.488 524.505 378 581.607 378Z" fill="#17242D"/>
<path d="M571.873 119.256C589.87 119.256 604.46 108.73 604.46 95.7466C604.46 82.7628 589.87 72.2373 571.873 72.2373C553.875 72.2373 539.285 82.7628 539.285 95.7466C539.285 108.73 553.875 119.256 571.873 119.256Z" fill="#17242D"/>
<path d="M567.022 119.924C579.244 119.924 589.152 112.777 589.152 103.96C589.152 95.1425 579.244 87.9949 567.022 87.9949C554.801 87.9949 544.893 95.1425 544.893 103.96C544.893 112.777 554.801 119.924 567.022 119.924Z" fill="#FFB8B8"/>
<path d="M553.864 112.589C553.864 112.589 563.434 128.554 558.649 130.279C553.864 132.005 551.472 139.772 551.472 139.772L564.032 158.757L581.376 166.524H591.544C591.544 166.524 601.711 133.731 598.123 129.848C594.534 125.965 581.376 123.807 581.376 123.807C581.376 123.807 578.386 118.63 579.582 113.883C580.778 109.137 553.864 112.589 553.864 112.589Z" fill="#FFB8B8"/>
<path d="M539.51 157.894L523.96 148.833C523.96 148.833 495.85 134.594 499.438 144.95C503.027 155.305 519.175 156.168 519.175 156.168L546.089 171.701L539.51 157.894Z" fill="#FFB8B8"/>
<path d="M538.314 205.357C538.314 205.357 531.137 226.93 538.314 256.271L541.305 267.921C541.305 267.921 541.305 276.982 544.295 280.434C544.295 280.434 552.07 331.779 556.257 331.779C560.443 331.779 573.601 330.053 574.797 328.759C575.993 327.465 551.472 203.199 551.472 203.199L538.314 205.357Z" fill="#17242D"/>
<path opacity="0.1" d="M538.314 205.357C538.314 205.357 531.137 226.93 538.314 256.271L541.305 267.921C541.305 267.921 541.305 276.982 544.295 280.434C544.295 280.434 552.07 331.779 556.257 331.779C560.443 331.779 573.601 330.053 574.797 328.759C575.993 327.465 551.472 203.199 551.472 203.199L538.314 205.357Z" fill="#17242D"/>
<path d="M557.956 328.333L548.691 353.103C548.691 353.103 530.161 360.967 541.606 362.539C553.051 364.112 564.496 360.967 564.496 360.967L569.946 349.565L575.396 347.206V359.394H577.03L580.845 343.274C580.845 343.274 580.3 335.017 577.03 334.231C573.761 333.445 572.126 329.12 572.126 329.12L557.956 328.333Z" fill="#17242D"/>
<path opacity="0.1" d="M557.956 328.333L548.691 353.103C548.691 353.103 530.161 360.967 541.606 362.539C553.051 364.112 564.496 360.967 564.496 360.967L569.946 349.565L575.396 347.206V359.394H577.03L580.845 343.274C580.845 343.274 580.3 335.017 577.03 334.231C573.761 333.445 572.126 329.12 572.126 329.12L557.956 328.333Z" fill="#17242D"/>
<path d="M535.922 204.494C535.922 204.494 540.706 217.438 542.501 219.595C542.501 219.595 544.893 256.271 552.668 268.784L561.041 284.748C561.041 284.748 574.797 331.779 571.209 336.957C571.209 336.957 589.749 339.977 590.946 336.957C590.946 336.957 590.348 311.932 592.142 308.48C593.936 305.028 596.927 286.043 582.572 272.236V230.382C582.572 230.382 605.3 216.575 592.142 198.885C578.984 181.194 535.922 204.494 535.922 204.494Z" fill="#17242D"/>
<path d="M573.003 334.368L562.836 361.551C562.836 361.551 542.501 370.181 555.061 371.907C567.62 373.633 580.18 370.181 580.18 370.181L586.161 357.668L592.142 355.079V368.455H593.936L598.123 350.764C598.123 350.764 597.525 341.703 593.936 340.84C590.348 339.977 588.553 335.231 588.553 335.231L573.003 334.368Z" fill="#17242D"/>
<path d="M559.95 127.057C559.95 127.057 544.893 133.3 544.893 133.731C544.893 134.163 546.687 141.066 546.687 141.066C546.687 141.066 528.147 154.442 540.706 166.092C540.706 166.092 544.893 168.25 544.893 175.153V182.057C544.893 182.057 509.606 198.021 518.577 203.199C527.548 208.377 537.118 207.514 540.108 210.534C543.099 213.555 560.443 207.945 564.032 207.082C567.62 206.22 568.218 205.357 571.209 208.377C574.199 211.397 590.946 206.22 590.946 206.22C590.946 206.22 601.711 204.062 604.104 204.062C605.581 204.049 607.027 203.751 608.29 203.199L582.573 184.214L595.431 160.699C595.431 160.699 557.453 143.655 557.453 138.909C557.453 134.163 559.95 127.057 559.95 127.057Z" fill="#008665"/>
<path d="M583.171 128.122C583.171 128.122 575.395 135.889 581.376 146.676C587.357 157.462 596.926 169.975 596.926 169.975L581.974 173.427H568.218C568.218 173.427 539.51 169.975 542.501 177.742C545.491 185.509 565.826 182.057 565.826 182.057H577.788C577.788 182.057 604.702 184.214 608.29 180.762C608.29 180.762 617.86 180.331 613.673 166.524C609.486 152.716 597.263 129.081 597.263 129.081L583.171 128.122Z" fill="#FFB8B8"/>
<path d="M562.719 96.8031C574.245 96.8031 583.589 93.3735 583.589 89.1428C583.589 84.9121 574.245 81.4824 562.719 81.4824C551.192 81.4824 541.848 84.9121 541.848 89.1428C541.848 93.3735 551.192 96.8031 562.719 96.8031Z" fill="#17242D"/>
<path d="M588.852 107.627C590.504 107.627 591.843 105.502 591.843 102.881C591.843 100.259 590.504 98.1345 588.852 98.1345C587.201 98.1345 585.862 100.259 585.862 102.881C585.862 105.502 587.201 107.627 588.852 107.627Z" fill="#FFB8B8"/>
<path d="M586.46 87.779C596.37 87.779 604.403 81.9836 604.403 74.8347C604.403 67.6857 596.37 61.8904 586.46 61.8904C576.551 61.8904 568.518 67.6857 568.518 74.8347C568.518 81.9836 576.551 87.779 586.46 87.779Z" fill="#17242D"/>
<path opacity="0.3" d="M204.172 133.71C244.828 133.71 277.786 109.933 277.786 80.6031C277.786 51.2732 244.828 27.4966 204.172 27.4966C163.517 27.4966 130.559 51.2732 130.559 80.6031C130.559 109.933 163.517 133.71 204.172 133.71Z" fill="#008665"/>
<path opacity="0.3" d="M61.6303 259.717C85.6539 259.717 105.129 245.667 105.129 228.336C105.129 211.005 85.6539 196.955 61.6303 196.955C37.6066 196.955 18.1316 211.005 18.1316 228.336C18.1316 245.667 37.6066 259.717 61.6303 259.717Z" fill="#008665"/>
<path opacity="0.3" d="M340.691 292.547C389.847 292.547 429.696 263.799 429.696 228.336C429.696 192.874 389.847 164.125 340.691 164.125C291.535 164.125 251.686 192.874 251.686 228.336C251.686 263.799 291.535 292.547 340.691 292.547Z" fill="#008665"/>
<path d="M45.6564 124.577L44.3474 124.375C44.6278 123.427 44.92 122.481 45.2241 121.539L46.5279 121.758C46.2256 122.695 45.9351 123.634 45.6564 124.577Z" fill="#17242D"/>
<path d="M467.096 116.599C466.41 114.76 465.665 112.902 464.883 111.078L466.161 110.793C466.948 112.628 467.698 114.497 468.389 116.349L467.096 116.599ZM48.48 116.177L47.1886 115.924C47.8892 114.067 48.6486 112.193 49.4459 110.352L50.7235 110.64C49.9308 112.469 49.1763 114.332 48.48 116.177V116.177ZM462.392 105.628C461.516 103.825 460.585 102.015 459.623 100.247L460.868 99.8942C461.836 101.673 462.774 103.495 463.655 105.309L462.392 105.628ZM53.2501 105.169L51.9881 104.847C52.8795 103.03 53.8294 101.202 54.8116 99.414L56.056 99.7695C55.0796 101.547 54.1356 103.364 53.2501 105.169ZM456.578 94.9417C455.525 93.1965 454.41 91.4396 453.265 89.7197L454.471 89.3015C455.623 91.0322 456.745 92.8 457.805 94.556L456.578 94.9417ZM59.1367 94.4506L57.9113 94.0617C58.9857 92.2998 60.1199 90.5287 61.2832 88.7977L62.4876 89.2187C61.3315 90.9391 60.2042 92.6993 59.1367 94.4506ZM449.684 84.5877C448.45 82.8977 447.158 81.2039 445.844 79.5536L447.005 79.0726C448.327 80.7332 449.627 82.4373 450.868 84.1379L449.684 84.5877ZM66.1046 84.0813L64.9223 83.6282C66.1748 81.9279 67.4871 80.2226 68.8229 78.5602L69.9809 79.0443C68.6533 80.6966 67.3489 82.3913 66.1046 84.0813ZM441.749 74.6236C440.35 73.0062 438.888 71.3848 437.406 69.8042L438.514 69.263C440.006 70.8535 441.476 72.485 442.885 74.1121L441.749 74.6236ZM74.1106 74.1146L72.978 73.6003C74.3978 71.9739 75.8797 70.3436 77.3827 68.7547L78.4885 69.2988C76.9946 70.8782 75.5216 72.4984 74.1106 74.1146H74.1106ZM432.817 65.1025C431.264 63.5692 429.641 62.0287 427.994 60.524L429.045 59.9257C430.702 61.4398 432.334 62.9898 433.898 64.5325L432.817 65.1025ZM83.1083 64.6032L82.0313 64.0299C83.6151 62.4808 85.2584 60.9339 86.9157 59.4321L87.9627 60.0332C86.3158 61.5261 84.6827 63.0636 83.1083 64.6032H83.1083ZM422.94 56.0752C421.226 54.6214 419.451 53.1702 417.664 51.7619L418.651 51.1099C420.449 52.5267 422.235 53.9868 423.959 55.4496L422.94 56.0752ZM93.0455 55.5952L92.0293 54.9668C93.7618 53.5092 95.557 52.0535 97.3653 50.6403L98.3489 51.2952C96.5517 52.6999 94.7672 54.1466 93.0455 55.5952ZM412.171 47.5901C410.31 46.2278 408.392 44.8737 406.47 43.5654L407.388 42.8629C409.322 44.1795 411.252 45.5418 413.124 46.9126L412.171 47.5901ZM103.866 47.1387L102.916 46.4584C104.796 45.093 106.733 43.7363 108.675 42.4261L109.589 43.1312C107.659 44.4334 105.734 45.7818 103.866 47.1387ZM400.566 39.6932C398.575 38.4337 396.524 37.1838 394.472 35.9785L395.316 35.2298C397.382 36.4424 399.445 37.6998 401.449 38.9671L400.566 39.6932ZM115.51 39.2774L114.632 38.5487C116.643 37.2873 118.712 36.0367 120.782 34.8316L121.622 35.5832C119.566 36.7807 117.509 38.0237 115.51 39.2774ZM388.19 32.4269C386.08 31.2779 383.907 30.1396 381.732 29.0434L382.498 28.2518C384.688 29.3548 386.874 30.5002 388.996 31.6561L388.19 32.4269ZM127.916 32.0532L127.114 31.28C129.249 30.1277 131.439 28.9901 133.622 27.8986L134.384 28.6926C132.214 29.777 130.038 30.9078 127.916 32.0532ZM375.106 25.8326C372.88 24.7966 370.596 23.7758 368.318 22.7994L369.002 21.9692C371.294 22.9519 373.591 23.9788 375.831 25.0212L375.106 25.8326ZM141.017 25.5059L140.296 24.6927C142.538 23.6576 144.837 22.6392 147.127 21.6656L147.807 22.4977C145.53 23.4652 143.246 24.4774 141.017 25.5059V25.5059ZM361.378 19.9482C359.058 19.0345 356.675 18.1378 354.297 17.283L354.895 16.4188C357.287 17.279 359.684 18.1812 362.019 19.1005L361.378 19.9482ZM154.743 19.6719L154.107 18.8223C156.446 17.91 158.842 17.0166 161.225 16.1672L161.818 17.0329C159.449 17.877 157.068 18.7651 154.743 19.6719ZM347.082 14.8075C344.673 14.0197 342.204 13.2526 339.745 12.527L340.252 11.6331C342.726 12.3632 345.211 13.1354 347.635 13.9282L347.082 14.8075ZM169.021 14.5848L168.473 13.704C170.895 12.92 173.373 12.1567 175.839 11.4358L176.342 12.3306C173.891 13.0473 171.428 13.8056 169.021 14.5848ZM332.293 10.4436C329.799 9.7847 327.257 9.15128 324.737 8.56076L325.15 7.64233C327.686 8.23664 330.244 8.87406 332.753 9.53695L332.293 10.4436ZM183.772 10.2734L183.315 9.3658C185.814 8.71162 188.363 8.08316 190.889 7.49736L191.299 8.41673C188.788 8.99876 186.256 9.62346 183.772 10.2734ZM317.087 6.88138C314.538 6.359 311.944 5.86463 309.376 5.41157L309.693 4.47381C312.278 4.92949 314.888 5.42712 317.453 5.95258L317.087 6.88138ZM198.937 6.75809L198.575 5.82834C201.136 5.30949 203.748 4.81751 206.34 4.36608L206.654 5.30478C204.078 5.75338 201.482 6.2423 198.937 6.75809ZM301.594 4.14896C299.002 3.76471 296.364 3.41017 293.753 3.09499L293.974 2.14262C296.601 2.45968 299.255 2.81659 301.863 3.20319L301.594 4.14896ZM214.44 4.0582L214.175 3.11194C216.787 2.73028 219.443 2.37903 222.068 2.06786L222.285 3.02071C219.676 3.32978 217.037 3.67891 214.44 4.05821V4.0582ZM285.864 2.24988C283.234 2.004 280.567 1.79066 277.937 1.61503L278.06 0.653705C280.707 0.830274 283.39 1.04503 286.036 1.29231L285.864 2.24988ZM230.178 2.19259L230.009 1.23456C232.647 0.993403 235.331 0.784067 237.987 0.612219L238.107 1.57402C235.467 1.7447 232.799 1.95285 230.178 2.19259V2.19259ZM269.983 1.18977C267.345 1.08345 264.664 1.01085 262.013 0.973836L262.039 0.0082618C264.706 0.0457454 267.404 0.118819 270.057 0.225607L269.983 1.18977ZM246.063 1.165L245.992 0.20084C248.65 0.0992419 251.349 0.0318205 254.013 0L254.035 0.965574C251.387 0.99694 248.705 1.06413 246.063 1.165Z" fill="#17242D"/>
<path d="M469.918 125.112C469.644 124.169 469.358 123.228 469.061 122.291L470.365 122.075C470.665 123.018 470.953 123.965 471.228 124.914L469.918 125.112Z" fill="#17242D"/>
<path d="M471.724 188.068L470.41 187.881C470.668 186.938 470.915 185.992 471.15 185.042L472.467 185.212C472.231 186.167 471.984 187.119 471.724 188.068Z" fill="#17242D"/>
<path d="M257.709 314.755C256.255 314.755 254.803 314.745 253.356 314.724L253.382 313.759C256.028 313.796 258.692 313.798 261.34 313.768L261.362 314.733C260.147 314.747 258.929 314.754 257.709 314.755ZM269.364 314.535L269.294 313.57C271.941 313.47 274.611 313.333 277.23 313.164L277.349 314.126C274.714 314.296 272.027 314.433 269.364 314.535ZM245.356 314.507C242.7 314.4 240.014 314.256 237.373 314.081L237.496 313.119C240.121 313.294 242.79 313.437 245.431 313.543L245.356 314.507ZM285.309 313.508L285.141 312.55C287.775 312.309 290.425 312.032 293.015 311.726L293.232 312.679C290.625 312.987 287.96 313.265 285.309 313.508V313.508ZM229.416 313.444C226.771 313.196 224.107 312.911 221.496 312.596L221.717 311.644C224.311 311.957 226.959 312.24 229.588 312.486L229.416 313.444ZM301.107 311.641L300.842 310.694C303.44 310.316 306.053 309.899 308.611 309.455L308.924 310.394C306.351 310.841 303.721 311.26 301.107 311.641ZM213.626 311.54C211.015 311.153 208.386 310.727 205.814 310.274L206.132 309.336C208.688 309.786 211.3 310.21 213.895 310.594L213.626 311.54ZM316.673 308.939L316.312 308.009C318.851 307.496 321.415 306.942 323.933 306.359L324.341 307.279C321.808 307.865 319.227 308.423 316.673 308.939V308.939ZM198.072 308.802C195.514 308.279 192.929 307.712 190.391 307.119L190.803 306.2C193.326 306.79 195.895 307.353 198.437 307.873L198.072 308.802ZM331.899 305.421L331.444 304.513C333.917 303.867 336.412 303.179 338.858 302.466L339.359 303.361C336.898 304.078 334.388 304.771 331.899 305.421L331.899 305.421ZM182.804 305.232C180.302 304.573 177.784 303.87 175.32 303.144L175.826 302.25C178.275 302.972 180.777 303.67 183.263 304.325L182.804 305.232ZM346.71 301.105L346.163 300.224C348.572 299.446 350.991 298.627 353.353 297.787L353.943 298.654C351.567 299.498 349.133 300.323 346.71 301.105L346.71 301.105ZM167.951 300.859C165.526 300.068 163.088 299.234 160.706 298.38L161.302 297.515C163.669 298.364 166.092 299.193 168.503 299.979L167.951 300.859ZM361.05 296.011L360.415 295.162C362.741 294.258 365.071 293.312 367.339 292.35L368.018 293.183C365.734 294.15 363.39 295.102 361.05 296.011H361.05ZM153.593 295.709C151.255 294.791 148.91 293.83 146.623 292.852L147.306 292.021C149.579 292.994 151.909 293.949 154.233 294.861L153.593 295.709ZM374.839 290.17L374.12 289.357C376.336 288.337 378.564 287.27 380.743 286.185L381.503 286.98C379.311 288.071 377.068 289.145 374.839 290.17H374.839ZM139.806 289.813C137.571 288.775 135.331 287.693 133.148 286.596L133.913 285.804C136.083 286.894 138.309 287.97 140.53 289.001L139.806 289.813ZM388.003 283.615L387.203 282.84C389.314 281.705 391.43 280.523 393.49 279.327L394.329 280.08C392.256 281.283 390.127 282.472 388.003 283.615L388.003 283.615ZM126.659 283.206C124.54 282.056 122.416 280.859 120.348 279.648L121.191 278.898C123.247 280.102 125.357 281.291 127.464 282.435L126.659 283.206ZM400.472 276.38L399.596 275.65C401.591 274.403 403.581 273.113 405.513 271.814L406.425 272.52C404.483 273.827 402.48 275.126 400.472 276.38L400.472 276.38ZM114.222 275.925C112.218 274.662 110.222 273.357 108.289 272.046L109.206 271.342C111.127 272.645 113.111 273.943 115.103 275.198L114.222 275.925ZM412.182 268.506L411.235 267.824C413.105 266.471 414.961 265.079 416.75 263.687L417.732 264.343C415.931 265.744 414.064 267.145 412.182 268.506ZM102.557 268.013C100.692 266.652 98.834 265.246 97.0336 263.833L98.0191 263.179C99.8085 264.584 101.655 265.981 103.509 267.334L102.557 268.013ZM423.068 260.035L422.053 259.405C423.78 257.959 425.491 256.472 427.138 254.986L428.183 255.59C426.526 257.084 424.805 258.58 423.068 260.035ZM91.7263 259.51C90.0033 258.054 88.2927 256.554 86.6419 255.052L87.6908 254.452C89.3315 255.945 91.0316 257.436 92.7445 258.883L91.7263 259.51ZM433.072 251.011L431.997 250.436C433.576 248.898 435.132 247.325 436.621 245.76L437.724 246.306C436.227 247.881 434.662 249.464 433.072 251.011ZM81.7875 250.463C80.2148 248.919 78.661 247.334 77.169 245.751L78.2761 245.208C79.7586 246.781 81.3029 248.357 82.8658 249.892L81.7875 250.463ZM442.136 241.479L441.006 240.962C442.418 239.355 443.81 237.703 445.144 236.053L446.3 236.54C444.958 238.2 443.557 239.862 442.136 241.479ZM72.794 240.921C71.3837 239.3 69.9953 237.638 68.6679 235.98L69.8267 235.497C71.1461 237.144 72.526 238.796 73.9279 240.408L72.794 240.921ZM450.21 231.491L449.03 231.036C450.282 229.347 451.502 227.625 452.658 225.918L453.86 226.341C452.698 228.06 451.47 229.792 450.21 231.491ZM64.7965 230.933C63.5544 229.242 62.3396 227.511 61.1858 225.789L62.3909 225.369C63.5375 227.08 64.7449 228.8 65.9794 230.482L64.7965 230.933ZM457.246 221.097L456.022 220.706C457.093 218.964 458.134 217.18 459.118 215.406L460.361 215.764C459.371 217.55 458.323 219.344 457.246 221.097V221.097ZM57.8403 220.553C56.7735 218.8 55.7389 217.01 54.7652 215.235L56.0098 214.879C56.9773 216.644 58.0057 218.423 59.0657 220.165L57.8403 220.553ZM463.201 210.351L461.941 210.025C462.833 208.225 463.689 206.39 464.486 204.572L465.762 204.863C464.961 206.692 464.099 208.538 463.201 210.351ZM51.9655 209.839C51.0799 208.032 50.229 206.188 49.437 204.358L50.7146 204.07C51.5018 205.888 52.3471 207.721 53.2274 209.517L51.9655 209.839ZM468.039 199.31L466.749 199.052C467.449 197.222 468.113 195.351 468.722 193.492L470.025 193.714C469.412 195.585 468.744 197.468 468.039 199.31ZM47.1911 198.814C46.4945 196.968 45.8357 195.086 45.2332 193.221L46.5369 193.002C47.1356 194.855 47.7901 196.726 48.4825 198.561L47.1911 198.814Z" fill="#17242D"/>
<path d="M43.5328 187.469C43.2779 186.52 43.0348 185.567 42.8035 184.612L44.1223 184.446C44.3517 185.395 44.5932 186.342 44.847 187.285L43.5328 187.469Z" fill="#17242D"/>
<path d="M366.968 188.509L365.723 188.154C366.209 187.268 366.681 186.361 367.126 185.458L368.388 185.782C367.937 186.696 367.459 187.613 366.968 188.509Z" fill="#17242D"/>
<path d="M257.709 242.095C256.106 242.095 254.488 242.072 252.9 242.026L252.954 241.061C255.588 241.138 258.281 241.151 260.923 241.098L260.96 242.064C259.879 242.085 258.796 242.096 257.709 242.095ZM269.004 241.708L268.877 240.747C271.513 240.566 274.171 240.317 276.778 240.006L276.997 240.958C274.359 241.273 271.67 241.525 269.004 241.708ZM244.863 241.594C242.201 241.385 239.517 241.107 236.885 240.767L237.121 239.817C239.722 240.153 242.376 240.428 245.008 240.634L244.863 241.594ZM284.899 239.813L284.59 238.874C287.167 238.433 289.752 237.922 292.274 237.355L292.672 238.277C290.121 238.85 287.506 239.367 284.899 239.813V239.813ZM229.004 239.546C226.405 239.075 223.799 238.533 221.257 237.935L221.672 237.017C224.185 237.608 226.761 238.144 229.33 238.61L229.004 239.546ZM300.281 236.357L299.795 235.458C302.258 234.766 304.722 234.003 307.117 233.189L307.687 234.063C305.264 234.886 302.772 235.658 300.281 236.357V236.357ZM213.683 235.941C211.2 235.216 208.722 234.42 206.318 233.574L206.905 232.707C209.281 233.542 211.73 234.329 214.185 235.046L213.683 235.941ZM314.857 231.406L314.204 230.563C316.517 229.631 318.811 228.631 321.026 227.59L321.756 228.399C319.517 229.452 317.196 230.464 314.857 231.406ZM199.196 230.848C196.877 229.884 194.574 228.85 192.352 227.775L193.098 226.973C195.295 228.037 197.571 229.059 199.864 230.012L199.196 230.848ZM328.356 225.059L327.549 224.288C329.665 223.137 331.749 221.92 333.745 220.671L334.622 221.401C332.603 222.664 330.495 223.894 328.356 225.059ZM185.816 224.371C183.697 223.186 181.611 221.935 179.617 220.652L180.508 219.932C182.479 221.199 184.541 222.436 186.636 223.608L185.816 224.371ZM340.527 217.444L339.583 216.759C341.46 215.412 343.295 214.002 345.039 212.568L346.045 213.204C344.282 214.655 342.425 216.081 340.527 217.444V217.444ZM173.785 216.639C171.913 215.26 170.083 213.817 168.345 212.348L169.363 211.721C171.081 213.173 172.891 214.601 174.741 215.964L173.785 216.639ZM351.15 208.703L350.086 208.118C351.69 206.601 353.242 205.024 354.7 203.43L355.817 203.961C354.342 205.574 352.773 207.17 351.15 208.703ZM163.324 207.799C161.728 206.247 160.188 204.637 158.746 203.012L159.873 202.492C161.298 204.097 162.821 205.689 164.399 207.223L163.324 207.799ZM360.021 199L358.857 198.525C360.158 196.864 361.396 195.148 362.538 193.425L363.745 193.842C362.591 195.584 361.338 197.32 360.021 199H360.021ZM154.634 198.012C153.347 196.316 152.126 194.569 151.007 192.819L152.223 192.415C153.329 194.145 154.535 195.872 155.807 197.548L154.634 198.012Z" fill="#17242D"/>
<path d="M147.868 187.426C147.395 186.525 146.934 185.603 146.5 184.684L147.768 184.373C148.196 185.281 148.651 186.193 149.119 187.083L147.868 187.426Z" fill="#17242D"/>
<path d="M149.936 126.142L148.694 125.782C149.196 124.882 149.724 123.979 150.265 123.098L151.489 123.489C150.954 124.36 150.432 125.253 149.936 126.142Z" fill="#17242D"/>
<path d="M155.006 118.258L153.823 117.807C155.087 116.082 156.453 114.366 157.882 112.708L159.018 113.218C157.606 114.857 156.256 116.553 155.006 118.258ZM359.356 116.852C358.063 115.165 356.668 113.489 355.212 111.868L356.335 111.342C357.808 112.982 359.219 114.678 360.527 116.384L359.356 116.852ZM163.505 108.39L162.42 107.825C164.004 106.242 165.685 104.679 167.416 103.18L168.445 103.798C166.733 105.28 165.071 106.825 163.505 108.39ZM350.597 107.102C348.992 105.561 347.29 104.039 345.539 102.579L346.551 101.947C348.322 103.424 350.044 104.963 351.668 106.523L350.597 107.102ZM173.811 99.462L172.844 98.7944C174.714 97.3845 176.677 96.0033 178.678 94.6893L179.579 95.4036C177.601 96.7025 175.66 98.0679 173.811 99.462ZM340.06 98.3175C338.174 96.9488 336.198 95.6101 334.186 94.3385L335.068 93.6125C337.103 94.8984 339.102 96.2525 341.009 97.6367L340.06 98.3175ZM185.721 91.6415L184.89 90.8843C187.014 89.6724 189.221 88.4994 191.452 87.3978L192.208 88.1945C190.003 89.2836 187.82 90.4432 185.721 91.6415ZM327.946 90.6615C325.819 89.4937 323.606 88.364 321.369 87.3042L322.104 86.497C324.366 87.5691 326.605 88.7117 328.757 89.893L327.946 90.6615ZM199.009 85.0802L198.332 84.2476C200.664 83.2597 203.076 82.3181 205.498 81.4492L206.094 82.3139C203.699 83.1727 201.316 84.1036 199.009 85.0802ZM314.486 84.2837C312.151 83.3374 309.742 82.4398 307.328 81.6152L307.901 80.7425C310.343 81.5765 312.779 82.4848 315.141 83.4416L314.486 84.2837ZM213.428 79.9096L212.917 79.0171C215.418 78.2722 217.987 77.5817 220.554 76.9648L220.976 77.8809C218.44 78.4907 215.9 79.1732 213.428 79.9096ZM299.931 79.3132C297.437 78.6105 294.88 77.9634 292.329 77.3894L292.728 76.4676C295.308 77.0483 297.895 77.7029 300.418 78.4136L299.931 79.3132ZM228.703 76.2378L228.37 75.3026C230.988 74.8168 233.666 74.3913 236.328 74.0381L236.57 74.9877C233.939 75.3368 231.292 75.7574 228.703 76.2378ZM284.56 75.8535C281.958 75.4092 279.3 75.0254 276.66 74.7128L276.877 73.76C279.547 74.0761 282.236 74.4644 284.868 74.9139L284.56 75.8535ZM244.54 74.1357L244.389 73.1763C247.069 72.958 249.802 72.8041 252.513 72.7185L252.572 73.6831C249.891 73.7678 247.189 73.92 244.54 74.1357ZM268.67 73.9712C266.013 73.7916 263.308 73.6763 260.628 73.6287L260.661 72.6636C263.371 72.7117 266.108 72.8281 268.795 73.0099L268.67 73.9712Z" fill="#17242D"/>
<path d="M364.652 124.693C364.134 123.811 363.588 122.925 363.031 122.061L364.243 121.654C364.807 122.528 365.36 123.423 365.884 124.315L364.652 124.693Z" fill="#17242D"/>
<path d="M381.929 157.252C380.171 157.247 378.465 157.683 377.102 158.484C375.74 159.285 374.805 160.403 374.457 161.646C374.109 162.889 374.369 164.18 375.194 165.3C376.019 166.42 377.357 167.299 378.98 167.787C380.603 168.274 382.41 168.341 384.093 167.974C385.776 167.608 387.23 166.831 388.209 165.778C389.187 164.724 389.628 163.458 389.456 162.196C389.285 160.934 388.511 159.753 387.268 158.857C386.57 158.347 385.739 157.943 384.822 157.667C383.905 157.392 382.922 157.251 381.929 157.252Z" fill="#17242D"/>
<path d="M351.652 157.252C349.894 157.247 348.188 157.683 346.825 158.484C345.463 159.285 344.528 160.403 344.18 161.646C343.832 162.889 344.092 164.18 344.917 165.3C345.742 166.42 347.08 167.299 348.703 167.787C350.326 168.274 352.133 168.341 353.816 167.974C355.499 167.608 356.953 166.831 357.931 165.778C358.91 164.724 359.35 163.458 359.179 162.196C359.008 160.934 358.234 159.753 356.991 158.857C356.292 158.348 355.46 157.945 354.544 157.669C353.627 157.394 352.644 157.252 351.652 157.252Z" fill="#17242D"/>
<path d="M366.791 126.951C359.246 126.951 351.871 128.565 345.598 131.588C339.325 134.612 334.436 138.91 331.549 143.939C328.662 148.967 327.907 154.5 329.378 159.838C330.85 165.176 334.483 170.08 339.818 173.928C345.153 177.777 351.949 180.398 359.349 181.46C366.748 182.521 374.418 181.976 381.388 179.894C388.358 177.811 394.315 174.284 398.507 169.758C402.698 165.233 404.935 159.912 404.935 154.47C404.935 147.171 400.917 140.172 393.763 135.011C386.61 129.85 376.907 126.951 366.791 126.951ZM374.203 138.426C374.688 138.423 375.169 138.489 375.618 138.622C376.067 138.754 376.475 138.95 376.818 139.197C377.161 139.444 377.432 139.739 377.616 140.063C377.799 140.386 377.891 140.733 377.887 141.083C377.891 141.614 377.677 142.133 377.272 142.575C376.866 143.017 376.287 143.363 375.609 143.567C374.931 143.772 374.184 143.826 373.463 143.723C372.742 143.621 372.079 143.366 371.559 142.991C371.04 142.616 370.686 142.138 370.544 141.618C370.401 141.097 370.477 140.558 370.76 140.069C371.044 139.58 371.522 139.162 372.135 138.87C372.748 138.577 373.468 138.423 374.203 138.426ZM351.652 170.513C349.513 170.514 347.422 170.057 345.643 169.2C343.864 168.343 342.477 167.125 341.658 165.7C340.839 164.274 340.625 162.705 341.042 161.192C341.459 159.678 342.489 158.288 344.001 157.197C345.513 156.106 347.441 155.363 349.539 155.062C351.636 154.761 353.811 154.916 355.787 155.507C357.763 156.098 359.451 157.098 360.639 158.382C361.827 159.665 362.46 161.174 362.459 162.717C362.449 164.782 361.307 166.761 359.283 168.222C357.258 169.682 354.515 170.506 351.652 170.513H351.652ZM368.644 154.971V162.491C368.644 162.846 368.448 163.186 368.101 163.437C367.753 163.687 367.282 163.828 366.791 163.828C366.299 163.828 365.828 163.687 365.48 163.437C365.133 163.186 364.937 162.846 364.937 162.491V156.985C364.937 155.89 363.084 155.648 357.814 153.458C357.131 153.166 355.671 152.648 355.671 151.194C355.683 150.493 356.069 149.823 356.749 149.322L365.053 143.548C365.447 143.261 365.928 143.043 366.459 142.912C366.989 142.781 367.554 142.741 368.11 142.794C368.666 142.848 369.197 142.993 369.661 143.22C370.126 143.446 370.511 143.748 370.786 144.1L374.203 149.122H379.763C380.254 149.122 380.724 149.264 381.071 149.514C381.418 149.765 381.613 150.105 381.613 150.459C381.613 150.813 381.418 151.153 381.071 151.403C380.724 151.654 380.254 151.795 379.763 151.796H373.115C371.875 151.796 370.879 149.874 368.713 147.492L363.049 151.796C365.123 152.965 368.644 153.868 368.644 154.971H368.644ZM381.929 170.505C379.792 170.505 377.702 170.047 375.925 169.191C374.148 168.334 372.763 167.116 371.945 165.692C371.127 164.267 370.913 162.7 371.33 161.188C371.747 159.675 372.776 158.286 374.288 157.196C375.799 156.106 377.724 155.363 379.821 155.062C381.917 154.761 384.09 154.916 386.064 155.506C388.039 156.096 389.727 157.095 390.914 158.377C392.102 159.659 392.735 161.167 392.735 162.708C392.726 164.774 391.585 166.753 389.56 168.214C387.536 169.675 384.792 170.498 381.929 170.505H381.929Z" fill="#17242D"/>
<path d="M475.203 126.951C467.658 126.951 460.283 128.565 454.01 131.588C447.738 134.612 442.848 138.91 439.961 143.939C437.074 148.967 436.319 154.5 437.791 159.838C439.262 165.176 442.895 170.08 448.23 173.928C453.565 177.777 460.362 180.398 467.761 181.46C475.16 182.521 482.83 181.976 489.8 179.894C496.77 177.811 502.728 174.284 506.919 169.758C511.11 165.233 513.348 159.912 513.348 154.47C513.348 147.171 509.329 140.172 502.175 135.011C495.022 129.85 485.319 126.951 475.203 126.951ZM465.091 146.623C466.258 146.643 467.391 146.91 468.349 147.392C469.306 147.874 470.045 148.549 470.473 149.333C470.901 150.116 470.999 150.974 470.754 151.797C470.51 152.621 469.934 153.374 469.099 153.962C468.264 154.551 467.207 154.949 466.06 155.106C464.914 155.263 463.728 155.172 462.652 154.846C461.576 154.519 460.658 153.97 460.012 153.269C459.366 152.567 459.022 151.744 459.022 150.902C459.03 150.333 459.194 149.771 459.504 149.248C459.814 148.725 460.263 148.252 460.827 147.854C461.391 147.457 462.057 147.144 462.789 146.933C463.521 146.721 464.303 146.616 465.091 146.623V146.623ZM497.441 165.165H493.399V160.887H457.007V165.165H452.964V143.774H457.007V156.609H473.176V146.623H489.356C490.407 146.615 491.449 146.756 492.424 147.038C493.399 147.321 494.287 147.739 495.038 148.269C495.788 148.799 496.387 149.43 496.799 150.127C497.212 150.824 497.43 151.573 497.441 152.33V165.165Z" fill="#17242D"/>
<path d="M52.9824 147.116H41.6316C41.5088 147.117 41.3912 147.152 41.3044 147.215C41.2176 147.277 41.1687 147.362 41.1683 147.451V159.149C41.1687 159.238 41.2176 159.322 41.3044 159.385C41.3912 159.448 41.5088 159.483 41.6316 159.483H52.9824C53.4735 159.482 53.944 159.341 54.2913 159.09C54.6385 158.84 54.8342 158.501 54.8356 158.146V148.453C54.8342 148.099 54.6385 147.76 54.2913 147.509C53.944 147.259 53.4735 147.117 52.9824 147.116Z" fill="#17242D"/>
<path d="M50.4339 161.99C49.9045 162.021 49.3984 162.161 48.9755 162.393C48.5526 162.625 48.2305 162.939 48.0473 163.299C47.8641 163.658 47.8275 164.049 47.9417 164.423C48.0559 164.797 48.3161 165.14 48.6918 165.411C49.0674 165.682 49.5427 165.87 50.0615 165.952C50.5803 166.034 51.1209 166.008 51.6196 165.876C52.1182 165.744 52.554 165.511 52.8755 165.206C53.197 164.901 53.3907 164.536 53.4338 164.154C53.4656 163.864 53.4099 163.572 53.2704 163.299C53.1309 163.026 52.911 162.779 52.6258 162.573C52.3406 162.367 51.997 162.208 51.6186 162.108C51.2402 162.007 50.836 161.967 50.4339 161.99Z" fill="#17242D"/>
<path d="M28.2073 161.99C27.6778 162.021 27.1717 162.161 26.7488 162.393C26.3259 162.625 26.0038 162.939 25.8206 163.299C25.6374 163.658 25.6008 164.049 25.715 164.423C25.8292 164.797 26.0895 165.14 26.4651 165.411C26.8407 165.682 27.316 165.87 27.8348 165.952C28.3536 166.034 28.8943 166.008 29.3929 165.876C29.8915 165.744 30.3273 165.511 30.6488 165.206C30.9703 164.901 31.164 164.536 31.2071 164.154C31.239 163.864 31.1832 163.572 31.0437 163.299C30.9042 163.026 30.6843 162.779 30.3991 162.573C30.1139 162.367 29.7703 162.208 29.3919 162.108C29.0135 162.007 28.6093 161.967 28.2073 161.99Z" fill="#17242D"/>
<path d="M37.4616 147.116H26.1339C25.6369 147.118 25.1607 147.261 24.8092 147.514C24.4577 147.768 24.2594 148.112 24.2576 148.47V158.13C24.2594 158.488 24.4577 158.832 24.8092 159.085C25.1607 159.339 25.6369 159.482 26.1339 159.483H37.4616C37.5844 159.483 37.702 159.448 37.7888 159.385C37.8756 159.322 37.9245 159.238 37.9249 159.149V147.451C37.9245 147.362 37.8756 147.277 37.7888 147.215C37.702 147.152 37.5844 147.117 37.4616 147.116Z" fill="#17242D"/>
<path d="M39.5466 126.951C32.0023 126.951 24.6273 128.565 18.3544 131.588C12.0815 134.612 7.19235 138.91 4.30524 143.939C1.41814 148.967 0.662741 154.5 2.13457 159.838C3.60641 165.176 7.23937 170.08 12.574 173.928C17.9087 177.777 24.7055 180.398 32.1049 181.46C39.5043 182.521 47.174 181.976 54.1441 179.894C61.1142 177.811 67.0716 174.284 71.263 169.758C75.4544 165.233 77.6916 159.912 77.6916 154.47C77.6916 147.171 73.6728 140.172 66.5192 135.011C59.3656 129.85 49.6633 126.951 39.5466 126.951ZM58.0786 165.666C58.075 166.552 57.5857 167.401 56.7176 168.027C55.8496 168.653 54.6732 169.006 53.4456 169.009H25.6476C24.42 169.006 23.2437 168.653 22.3756 168.027C21.5075 167.401 21.0182 166.552 21.0146 165.666V142.604C21.0175 141.896 21.4089 141.217 22.1034 140.716C22.7978 140.215 23.7389 139.932 24.721 139.93H54.3722C55.3543 139.932 56.2954 140.215 56.9899 140.716C57.6843 141.217 58.0757 141.896 58.0786 142.604V165.666Z" fill="#17242D"/>
<path d="M53.098 142.27H25.9949C25.7726 142.259 25.5495 142.281 25.3394 142.335C25.1294 142.388 24.9369 142.473 24.7739 142.582C24.611 142.692 24.4811 142.825 24.3922 142.972C24.3034 143.12 24.2576 143.279 24.2576 143.44C24.2576 143.6 24.3034 143.76 24.3922 143.907C24.4811 144.055 24.611 144.187 24.7739 144.297C24.9369 144.407 25.1294 144.491 25.3394 144.545C25.5495 144.599 25.7726 144.621 25.9949 144.61H53.098C53.3203 144.621 53.5435 144.599 53.7535 144.545C53.9636 144.491 54.156 144.407 54.319 144.297C54.4819 144.187 54.6119 144.055 54.7007 143.907C54.7895 143.76 54.8354 143.6 54.8354 143.44C54.8354 143.279 54.7895 143.12 54.7007 142.972C54.6119 142.825 54.4819 142.692 54.319 142.582C54.156 142.473 53.9636 142.388 53.7535 142.335C53.5435 142.281 53.3203 142.259 53.098 142.27Z" fill="#17242D"/>
<path d="M153.724 155.222C152.96 155.222 152.334 156.041 152.334 157.06C152.334 158.079 152.96 158.898 153.724 158.898C154.489 158.898 155.114 158.079 155.114 157.06C155.114 156.041 154.489 155.222 153.724 155.222Z" fill="#17242D"/>
<path d="M143.532 155.222C142.767 155.222 142.142 156.041 142.142 157.06C142.142 158.079 142.767 158.898 143.532 158.898C144.296 158.898 144.921 158.079 144.921 157.06C144.921 156.041 144.296 155.222 143.532 155.222Z" fill="#17242D"/>
<path d="M148.627 126.951C141.083 126.951 133.708 128.565 127.435 131.588C121.162 134.612 116.273 138.91 113.386 143.939C110.499 148.967 109.744 154.5 111.215 159.838C112.687 165.176 116.32 170.08 121.655 173.928C126.99 177.777 133.786 180.398 141.186 181.46C148.585 182.521 156.255 181.976 163.225 179.894C170.195 177.811 176.152 174.284 180.344 169.758C184.535 165.233 186.772 159.912 186.772 154.47C186.772 147.171 182.754 140.172 175.6 135.011C168.446 129.85 158.744 126.951 148.627 126.951ZM130.79 153.534L132.898 145.445C133.443 143.248 134.856 141.518 137.508 141.518H141.493L141.724 140.858C141.927 140.282 142.39 139.771 143.041 139.406C143.691 139.042 144.491 138.844 145.315 138.844H151.917C152.739 138.844 153.538 139.041 154.188 139.404C154.838 139.767 155.302 140.275 155.507 140.849L155.739 141.518H159.747C162.341 141.518 163.719 143.214 164.368 145.437V145.445L166.488 153.542C166.504 153.603 166.498 153.665 166.468 153.723C166.439 153.781 166.387 153.832 166.32 153.87C166.253 153.908 166.172 153.932 166.087 153.939C166.002 153.946 165.916 153.936 165.839 153.91L162.897 152.932C162.828 152.911 162.767 152.878 162.72 152.836C162.674 152.793 162.643 152.743 162.631 152.69L160.754 145.537C160.407 144.618 159.92 144.2 158.889 144.2H138.377C137.358 144.2 136.802 144.643 136.512 145.537L134.636 152.69C134.622 152.743 134.59 152.792 134.543 152.834C134.497 152.876 134.437 152.91 134.369 152.932L131.439 153.901C131.362 153.927 131.276 153.936 131.191 153.929C131.107 153.921 131.027 153.897 130.96 153.859C130.893 153.822 130.842 153.771 130.812 153.714C130.782 153.656 130.775 153.594 130.79 153.534ZM171.642 158.739L165.306 170.095C162.121 170.095 158.739 168.257 158.739 168.257C156.654 169.017 152.589 169.686 149.554 169.811C149.23 169.819 148.917 169.828 148.627 169.828C148.338 169.828 148.025 169.828 147.701 169.811C144.666 169.686 140.601 169.009 138.516 168.257C138.516 168.257 135.134 170.095 131.949 170.095L125.613 158.739C125.515 158.561 125.464 158.371 125.462 158.18C125.463 157.891 125.577 157.609 125.793 157.366C126.008 157.123 126.316 156.93 126.679 156.809L148.234 149.665C148.355 149.624 148.487 149.602 148.622 149.602C148.756 149.602 148.888 149.624 149.01 149.665L170.576 156.809C170.939 156.93 171.247 157.123 171.462 157.366C171.678 157.609 171.792 157.891 171.792 158.18C171.791 158.371 171.739 158.561 171.642 158.739Z" fill="#17242D"/>
<path d="M257.709 126.951C250.165 126.951 242.79 128.565 236.517 131.588C230.244 134.612 225.355 138.91 222.468 143.939C219.58 148.967 218.825 154.5 220.297 159.838C221.769 165.176 225.402 170.08 230.736 173.928C236.071 177.777 242.868 180.398 250.267 181.46C257.667 182.521 265.336 181.976 272.306 179.894C279.277 177.811 285.234 174.284 289.425 169.758C293.617 165.233 295.854 159.912 295.854 154.47C295.854 147.171 291.835 140.172 284.682 135.011C277.528 129.85 267.826 126.951 257.709 126.951ZM275.281 157.152C274.887 157.152 273.578 157.143 273.196 157.127L265.679 156.985C265.64 156.984 265.602 156.991 265.567 157.004C265.533 157.017 265.503 157.036 265.482 157.06L254.201 169.226C254.034 169.416 253.803 169.572 253.529 169.68C253.256 169.789 252.949 169.845 252.637 169.844H249.892C249.244 169.844 249.024 169.376 249.255 168.942L255.058 157.001C255.071 156.977 255.076 156.95 255.072 156.923C255.068 156.897 255.055 156.872 255.035 156.85C255.015 156.827 254.987 156.809 254.955 156.796C254.923 156.783 254.886 156.776 254.85 156.776L240.754 156.55C240.607 156.548 240.462 156.57 240.329 156.615C240.197 156.66 240.08 156.726 239.989 156.809L235.623 160.628C235.448 160.786 235.226 160.914 234.973 161.003C234.721 161.091 234.444 161.137 234.163 161.138H232.229C232.155 161.138 232.082 161.126 232.016 161.102C231.949 161.077 231.892 161.042 231.849 160.999C231.806 160.955 231.778 160.905 231.768 160.852C231.757 160.799 231.764 160.745 231.789 160.695L234.094 154.954C234.267 154.635 234.267 154.279 234.094 153.96L231.789 148.219C231.764 148.169 231.757 148.115 231.768 148.062C231.778 148.009 231.806 147.959 231.849 147.915C231.892 147.872 231.949 147.837 232.016 147.812C232.082 147.788 232.155 147.776 232.229 147.776H234.175C234.456 147.775 234.734 147.821 234.987 147.909C235.24 147.997 235.461 148.126 235.634 148.286L239.92 152.046C240.01 152.13 240.126 152.197 240.259 152.242C240.392 152.287 240.538 152.309 240.684 152.305L254.861 152.155C254.898 152.155 254.935 152.148 254.967 152.135C255 152.123 255.028 152.104 255.049 152.082C255.069 152.06 255.082 152.034 255.086 152.008C255.089 151.981 255.084 151.954 255.07 151.929L249.267 139.997C249.035 139.563 249.255 139.095 249.904 139.095H252.649C252.96 139.095 253.267 139.152 253.54 139.26C253.813 139.368 254.044 139.524 254.213 139.713L265.482 151.888C265.502 151.912 265.531 151.932 265.566 151.945C265.601 151.958 265.64 151.964 265.679 151.963L273.196 151.821C273.567 151.804 274.887 151.796 275.281 151.796C280.424 151.796 283.655 152.999 283.655 154.478C283.655 155.957 280.412 157.152 275.281 157.152Z" fill="#17242D"/>
<path d="M45.3499 247.23C43.7616 247.23 42.209 246.89 40.8884 246.254C39.5677 245.617 38.5384 244.712 37.9306 243.654C37.3228 242.595 37.1638 241.43 37.4736 240.306C37.7835 239.183 38.5483 238.15 39.6714 237.34C40.7945 236.53 42.2254 235.978 43.7832 235.755C45.341 235.531 46.9556 235.646 48.423 236.084C49.8904 236.523 51.1446 237.265 52.027 238.218C52.9094 239.171 53.3804 240.291 53.3804 241.437C53.378 242.973 52.5311 244.445 51.0256 245.531C49.5201 246.617 47.479 247.228 45.3499 247.23ZM45.3499 236.609C44.0263 236.609 42.7324 236.892 41.6319 237.423C40.5314 237.953 39.6737 238.707 39.1672 239.589C38.6607 240.471 38.5281 241.442 38.7863 242.379C39.0446 243.315 39.6819 244.175 40.6178 244.851C41.5537 245.526 42.7462 245.986 44.0443 246.172C45.3424 246.358 46.688 246.262 47.9108 245.897C49.1336 245.532 50.1788 244.913 50.9142 244.119C51.6495 243.325 52.042 242.392 52.042 241.437C52.04 240.157 51.3343 238.93 50.0797 238.024C48.8251 237.119 47.1241 236.61 45.3499 236.609Z" fill="white"/>
<path d="M214.66 117.361C213.072 117.361 211.519 117.021 210.199 116.384C208.878 115.748 207.849 114.843 207.241 113.784C206.633 112.726 206.474 111.561 206.784 110.437C207.094 109.313 207.859 108.281 208.982 107.471C210.105 106.66 211.536 106.109 213.093 105.885C214.651 105.661 216.266 105.776 217.733 106.215C219.201 106.653 220.455 107.396 221.337 108.348C222.22 109.301 222.691 110.421 222.691 111.567C222.688 113.103 221.841 114.576 220.336 115.662C218.83 116.748 216.789 117.359 214.66 117.361ZM214.66 106.739C213.337 106.739 212.043 107.022 210.942 107.553C209.842 108.083 208.984 108.837 208.477 109.72C207.971 110.602 207.838 111.572 208.097 112.509C208.355 113.446 208.992 114.306 209.928 114.981C210.864 115.656 212.056 116.116 213.355 116.302C214.653 116.489 215.998 116.393 217.221 116.028C218.444 115.662 219.489 115.043 220.224 114.249C220.96 113.455 221.352 112.522 221.352 111.567C221.35 110.287 220.645 109.06 219.39 108.155C218.135 107.25 216.434 106.741 214.66 106.739Z" fill="#F0F0F0"/>
<path d="M364.21 276.376L355.199 269.407L364.86 262.906L373.871 269.875L364.21 276.376ZM356.635 269.443L364.26 275.34L372.434 269.839L364.81 263.942L356.635 269.443Z" fill="#F0F0F0"/>
</svg>
