<svg width="697" height="378" viewBox="0 0 697 378" fill="none" xmlns="http://www.w3.org/2000/svg">
<rect width="696.873" height="378" fill="#E5EDE8"/>
<path d="M191.85 378C278.407 378 348.575 374.972 348.575 371.236C348.575 367.5 278.407 364.471 191.85 364.471C105.293 364.471 35.1245 367.5 35.1245 371.236C35.1245 374.972 105.293 378 191.85 378Z" fill="#C4C4C4"/>
<path d="M357.594 0C355.966 0.00160974 354.406 0.601617 353.255 1.66836C352.104 2.7351 351.456 4.18145 351.455 5.69005V216.635C351.456 218.144 352.104 219.59 353.255 220.657C354.406 221.724 355.966 222.324 357.594 222.326H679.32C680.947 222.324 682.508 221.724 683.659 220.657C684.81 219.59 685.457 218.144 685.459 216.635V5.69005C685.457 4.18145 684.81 2.7351 683.659 1.66836C682.508 0.601617 680.947 0.00160795 679.32 0H357.594Z" fill="#C4C4C4"/>
<path d="M358.362 215.924H678.552V6.40137H358.362V215.924Z" fill="white"/>
<path d="M267.219 268.143C265.253 268.143 263.347 268.769 261.819 269.915C260.292 271.062 259.234 272.659 258.825 274.441H270.795V302.284H258.825C259.266 304.206 260.46 305.909 262.177 307.064C263.893 308.219 266.009 308.744 268.119 308.538C270.228 308.332 272.18 307.41 273.599 305.949C275.018 304.488 275.803 302.592 275.803 300.627V276.098C275.803 275.054 275.581 274.019 275.149 273.054C274.718 272.089 274.086 271.212 273.289 270.473C272.491 269.734 271.545 269.148 270.504 268.749C269.462 268.349 268.346 268.143 267.219 268.143V268.143Z" fill="#3F3D56"/>
<path d="M170.707 219.418C166.615 219.422 162.693 220.931 159.799 223.612C156.906 226.293 155.279 229.929 155.274 233.721V343.668C155.279 347.46 156.906 351.095 159.799 353.776C162.693 356.458 166.615 357.966 170.707 357.97H245.706C249.798 357.966 253.72 356.458 256.614 353.776C259.507 351.095 261.134 347.46 261.139 343.668V233.721C261.134 229.929 259.507 226.293 256.614 223.612C253.72 220.931 249.798 219.422 245.706 219.418H170.707Z" fill="#3F3D56"/>
<path d="M162.785 370.897C167.13 370.897 170.653 367.633 170.653 363.605C170.653 359.578 167.13 356.313 162.785 356.313C158.439 356.313 154.916 359.578 154.916 363.605C154.916 367.633 158.439 370.897 162.785 370.897Z" fill="#3F3D56"/>
<path d="M250.767 370.897C255.113 370.897 258.635 367.633 258.635 363.605C258.635 359.578 255.113 356.313 250.767 356.313C246.421 356.313 242.899 359.578 242.899 363.605C242.899 367.633 246.421 370.897 250.767 370.897Z" fill="#3F3D56"/>
<path d="M172.799 218.423H168.507V358.302H172.799V218.423Z" fill="#4D4D4D"/>
<path d="M184.959 218.423H180.667V358.302H184.959V218.423Z" fill="#4D4D4D"/>
<path d="M197.119 218.423H192.827V358.302H197.119V218.423Z" fill="#4D4D4D"/>
<path d="M209.279 218.423H204.988V358.302H209.279V218.423Z" fill="#4D4D4D"/>
<path d="M221.44 218.423H217.148V358.302H221.44V218.423Z" fill="#4D4D4D"/>
<path d="M233.6 218.423H229.308V358.302H233.6V218.423Z" fill="#4D4D4D"/>
<path d="M245.76 218.423H241.468V358.302H245.76V218.423Z" fill="#4D4D4D"/>
<path d="M244.607 207.816C247.411 203.396 248.89 198.36 248.889 193.232H172.888C172.888 198.36 174.366 203.396 177.171 207.816H161.712C161.712 215.505 168.717 221.738 177.359 221.738H196.508C199.725 222.62 203.063 223.067 206.418 223.064H215.359C218.714 223.067 222.052 222.62 225.269 221.738H244.419C253.06 221.738 260.066 215.505 260.066 207.816H244.607Z" fill="#2F2E41"/>
<path d="M188.467 308.25C188.608 309.664 188.284 311.084 187.537 312.323C186.79 313.562 185.655 314.562 184.282 315.191L184.244 315.211C177.09 318.993 171.236 321.961 164.289 321.415C163.589 321.357 162.912 321.151 162.313 320.811C161.713 320.472 161.206 320.009 160.831 319.458C160.455 318.907 160.223 318.283 160.15 317.635C160.078 316.988 160.168 316.333 160.413 315.723L170.295 298.306C176.036 292.108 180.081 292.102 187.105 297.312L188.467 308.25Z" fill="#2F2E41"/>
<path d="M229.377 308.25C229.236 309.664 229.56 311.084 230.307 312.323C231.054 313.562 232.189 314.562 233.561 315.191L233.6 315.211C240.754 318.993 246.607 321.961 253.555 321.415C254.255 321.357 254.931 321.151 255.531 320.811C256.131 320.472 256.638 320.009 257.013 319.458C257.388 318.907 257.621 318.283 257.693 317.635C257.766 316.988 257.676 316.333 257.43 315.723L247.548 298.306C241.808 292.108 237.763 292.102 230.739 297.312L229.377 308.25Z" fill="#2F2E41"/>
<path d="M200.657 103.073H173.16C171.914 103.075 170.701 102.705 169.7 102.018C168.699 101.331 167.964 100.363 167.603 99.2579C166.756 96.6425 165.663 94.105 165.646 91.8036C165.578 82.8715 166.057 77.1862 170.295 73.573C184.416 63.6499 194.647 65.4752 204.272 75.8932C207.651 81.7135 206.784 90.4 204.956 99.7348C204.775 100.67 204.246 101.516 203.46 102.127C202.674 102.737 201.682 103.072 200.657 103.073Z" fill="#2F2E41"/>
<path d="M186.39 114.343C196.661 114.343 204.988 106.627 204.988 97.1073C204.988 87.588 196.661 79.8711 186.39 79.8711C176.118 79.8711 167.792 87.588 167.792 97.1073C167.792 106.627 176.118 114.343 186.39 114.343Z" fill="#A0616A"/>
<path d="M200.696 131.58L174.945 132.243L172.799 106.388L197.834 105.726L200.696 131.58Z" fill="#A0616A"/>
<path d="M244.329 193.232L226.56 200.854C223.583 207.4 219.479 207.212 214.286 200.524C209.33 208.568 198.657 203.748 193.442 200.234C190.08 198.646 186.362 197.815 182.589 197.808C178.816 197.801 175.095 198.618 171.726 200.193L152.77 122.298C158.613 117.643 166.399 114.719 173.872 112.686L188.536 129.591L198.55 113.017C205.51 107.831 215.287 107.821 225.731 109.04L231.83 139.256C227.808 163.092 233.856 175.047 244.329 193.232Z" fill="#008665"/>
<path d="M185.674 295.987L170.653 297.312L148.4 206.164C147.894 204.053 147.906 201.864 148.435 199.758C148.964 197.652 149.996 195.683 151.456 193.996C152.916 192.309 154.766 190.948 156.869 190.013C158.973 189.077 161.276 188.592 163.609 188.592V188.592C165.828 188.592 168.02 189.031 170.041 189.879C172.061 190.728 173.863 191.967 175.325 193.513C176.788 195.059 177.877 196.876 178.52 198.844C179.163 200.812 179.346 202.884 179.055 204.922L176.375 223.727L185.674 295.987Z" fill="#2F2E41"/>
<path d="M230.738 297.312L245.76 296.649L268.013 206.164C268.519 204.053 268.507 201.864 267.978 199.758C267.449 197.652 266.417 195.683 264.957 193.996C263.497 192.309 261.647 190.948 259.543 190.013C257.44 189.077 255.137 188.592 252.803 188.592V188.592C250.585 188.592 248.392 189.031 246.372 189.879C244.351 190.728 242.55 191.967 241.088 193.513C239.625 195.059 238.536 196.876 237.893 198.844C237.25 200.812 237.067 202.884 237.357 204.922L240.037 223.727L230.738 297.312Z" fill="#2F2E41"/>
<path d="M279.563 166.503L266.861 196.878C259.917 191.957 254.317 191.286 246.614 193.895C244.484 193.621 242.899 189.282 242.899 187.289C242.899 186.261 243.326 185.273 244.092 184.53C244.858 183.787 245.904 183.346 247.011 183.3L258.635 182.81C260.762 177.649 262.055 172.226 262.471 166.715C268.048 165.248 273.945 165.175 279.563 166.503V166.503Z" fill="#A0616A"/>
<path d="M280.81 167.378L283.906 156.669C285.259 152.753 285.126 148.526 283.53 144.689C281.934 140.852 278.971 137.636 275.132 135.574L225.731 109.04L225.016 138.209L261.497 152.793C262.504 157.756 262.832 162.817 262.471 167.856C268.161 166.289 275.105 165.956 280.81 167.378Z" fill="#008665"/>
<path d="M204.63 87.4949L185.317 90.8095C183.532 90.8095 181.765 90.4838 180.116 89.8508C178.467 89.2178 176.969 88.29 175.707 87.1204C174.445 85.9507 173.444 84.5622 172.761 83.034C172.078 81.5058 171.726 79.868 171.726 78.2139H205.345L204.63 87.4949Z" fill="#2F2E41"/>
<path d="M169.222 94.1235C170.21 94.1235 171.011 92.6394 171.011 90.8088C171.011 88.9782 170.21 87.4941 169.222 87.4941C168.235 87.4941 167.434 88.9782 167.434 90.8088C167.434 92.6394 168.235 94.1235 169.222 94.1235Z" fill="#A0616A"/>
<path d="M228.235 143.567H228.027V138.293C228.027 137.892 227.942 137.495 227.776 137.125C227.611 136.754 227.368 136.418 227.062 136.134C226.757 135.851 226.394 135.626 225.994 135.473C225.594 135.319 225.166 135.24 224.734 135.24H212.677C212.245 135.24 211.817 135.319 211.417 135.473C211.017 135.626 210.654 135.851 210.348 136.134C210.043 136.418 209.8 136.754 209.634 137.125C209.469 137.495 209.384 137.892 209.384 138.293V167.226C209.384 167.627 209.469 168.023 209.634 168.394C209.8 168.764 210.043 169.101 210.348 169.384C210.654 169.668 211.017 169.892 211.417 170.046C211.817 170.199 212.245 170.278 212.677 170.278H224.734C225.166 170.278 225.594 170.199 225.994 170.046C226.394 169.892 226.757 169.668 227.062 169.384C227.368 169.101 227.611 168.764 227.776 168.394C227.942 168.023 228.027 167.627 228.027 167.226V147.321H228.235V143.567Z" fill="#C4C4C4"/>
<path d="M218.221 146.495C219.801 146.495 221.082 145.308 221.082 143.844C221.082 142.379 219.801 141.192 218.221 141.192C216.64 141.192 215.359 142.379 215.359 143.844C215.359 145.308 216.64 146.495 218.221 146.495Z" fill="#008665"/>
<path d="M215.717 168.041C201.003 178.745 186.251 187.655 175.302 188.923L173.514 170.692C184.03 169.288 198.089 162.867 212.856 155.445L220.078 151.964C221.243 151.403 222.539 151.118 223.852 151.135C225.165 151.152 226.452 151.47 227.6 152.061C228.747 152.652 229.719 153.497 230.427 154.522C231.136 155.546 231.559 156.717 231.66 157.93V157.93C231.803 159.65 231.289 161.362 230.208 162.767C229.127 164.172 227.548 165.18 225.747 165.616L215.717 168.041Z" fill="#A0616A"/>
<path d="M187.82 189.254L158.493 189.917C148.625 171.975 145.043 152.83 147.048 132.614C147.048 130.454 147.613 128.326 148.695 126.413C149.777 124.499 151.343 122.857 153.259 121.628L156.347 119.646C169.549 137.81 177.737 154.676 174.945 168.703L183.528 168.04C177.97 174.993 180.543 182.084 187.82 189.254Z" fill="#008665"/>
<path d="M60.924 267.545C60.924 267.545 62.4392 237.342 93.5014 240.853Z" fill="#C4C4C4"/>
<path d="M60.5592 369.89C60.5203 369.574 56.854 338.102 71.6991 321.446C77.1778 315.298 84.5192 311.856 93.5188 311.214L93.6179 312.401C84.98 313.017 77.9389 316.314 72.6909 322.201C58.1931 338.465 61.7967 369.445 61.8343 369.755L60.5592 369.89Z" fill="#C4C4C4"/>
<path d="M60.5961 236.664H59.304V368.99H60.5961V236.664Z" fill="#C4C4C4"/>
<path d="M60.1311 238.178C65.989 238.178 70.7377 233.777 70.7377 228.348C70.7377 222.919 65.989 218.518 60.1311 218.518C54.2733 218.518 49.5245 222.919 49.5245 228.348C49.5245 233.777 54.2733 238.178 60.1311 238.178Z" fill="#008665"/>
<path d="M93.5683 321.575C99.3891 321.575 104.108 317.202 104.108 311.807C104.108 306.412 99.3891 302.039 93.5683 302.039C87.7475 302.039 83.0288 306.412 83.0288 311.807C83.0288 317.202 87.7475 321.575 93.5683 321.575Z" fill="#C4C4C4"/>
<path d="M403.095 48.1631C399.611 48.1631 396.206 49.1205 393.309 50.9144C390.412 52.7082 388.154 55.2579 386.821 58.2409C385.488 61.224 385.139 64.5064 385.819 67.6732C386.498 70.84 388.176 73.7488 390.64 76.0319C393.103 78.3151 396.242 79.8699 399.659 80.4998C403.076 81.1297 406.617 80.8064 409.836 79.5708C413.055 78.3351 415.806 76.2427 417.741 73.558C419.677 70.8734 420.71 67.7171 420.71 64.4882C420.71 62.3444 420.254 60.2215 419.369 58.2409C418.484 56.2602 417.186 54.4605 415.551 52.9446C413.915 51.4287 411.973 50.2262 409.836 49.4057C407.699 48.5853 405.408 48.1631 403.095 48.1631V48.1631ZM411.21 66.0795C411.028 66.0795 410.423 66.0745 410.247 66.0646L406.776 65.9803C406.758 65.9799 406.74 65.9838 406.724 65.9916C406.708 65.9994 406.695 66.0109 406.685 66.0249L401.475 73.2424C401.398 73.355 401.291 73.4478 401.165 73.5119C401.039 73.576 400.897 73.6095 400.753 73.6092H399.485C399.186 73.6092 399.084 73.3316 399.191 73.0738L401.871 65.9902C401.877 65.9755 401.879 65.9597 401.878 65.944C401.876 65.9283 401.87 65.9133 401.86 65.9001C401.851 65.887 401.838 65.8762 401.823 65.8686C401.808 65.861 401.792 65.8568 401.775 65.8564L395.265 65.7225C395.198 65.7211 395.131 65.7343 395.069 65.761C395.008 65.7876 394.954 65.8271 394.912 65.8762L392.896 68.1416C392.815 68.2355 392.713 68.3115 392.596 68.3638C392.479 68.4162 392.352 68.4436 392.222 68.4439H391.329C391.295 68.4443 391.261 68.437 391.23 68.4226C391.2 68.4083 391.173 68.3873 391.153 68.3616C391.133 68.3358 391.121 68.306 391.116 68.2746C391.111 68.2432 391.114 68.2112 391.126 68.1812L392.19 64.7757C392.27 64.5861 392.27 64.3754 392.19 64.1858L391.126 60.7804C391.114 60.7504 391.111 60.7184 391.116 60.687C391.121 60.6556 391.133 60.6258 391.153 60.6C391.173 60.5742 391.2 60.5533 391.23 60.539C391.261 60.5246 391.295 60.5173 391.329 60.5177H392.227C392.357 60.5169 392.485 60.5438 392.602 60.5962C392.719 60.6487 392.821 60.7252 392.901 60.82L394.88 63.0507C394.922 63.1002 394.976 63.1399 395.037 63.1666C395.098 63.1933 395.166 63.2062 395.233 63.2043L401.78 63.1151C401.797 63.115 401.814 63.1111 401.829 63.1035C401.844 63.096 401.857 63.0851 401.867 63.0719C401.876 63.0587 401.882 63.0435 401.884 63.0277C401.885 63.0119 401.883 62.996 401.876 62.9813L399.197 55.9026C399.09 55.6449 399.191 55.3673 399.491 55.3673H400.759C400.902 55.3675 401.044 55.4012 401.17 55.4653C401.296 55.5294 401.403 55.6218 401.481 55.7341L406.685 62.9565C406.694 62.9709 406.707 62.9827 406.724 62.9906C406.74 62.9985 406.758 63.0021 406.776 63.0011L410.247 62.9168C410.418 62.9069 411.028 62.9019 411.21 62.9019C413.585 62.9019 415.077 63.6158 415.077 64.4931C415.077 65.3705 413.579 66.0795 411.21 66.0795Z" fill="#3F3D56"/>
<path d="M447.796 63.7217H443.417V65.0746H447.796V63.7217Z" fill="#3F3D56"/>
<path d="M601.993 65.0746H593.426V63.7217H601.993V65.0746ZM584.86 65.0746H576.293V63.7217H584.86L584.86 65.0746ZM567.727 65.0746H559.16V63.7217H567.727V65.0746ZM550.594 65.0746H542.027V63.7217H550.594V65.0746ZM533.461 65.0746H524.894V63.7217H533.461V65.0746ZM516.328 65.0746H507.761V63.7217H516.328V65.0746ZM499.195 65.0746H490.628V63.7217H499.195V65.0746ZM482.062 65.0746H473.495V63.7217H482.062V65.0746ZM464.929 65.0746H456.362V63.7217H464.929V65.0746Z" fill="#3F3D56"/>
<path d="M614.939 63.7217H610.56V65.0746H614.939V63.7217Z" fill="#3F3D56"/>
<path d="M447.796 110.396H443.417V111.749H447.796V110.396Z" fill="#3F3D56"/>
<path d="M601.993 111.749H593.426V110.396H601.993V111.749ZM584.86 111.749H576.293V110.396H584.86L584.86 111.749ZM567.727 111.749H559.16V110.396H567.727V111.749ZM550.594 111.749H542.027V110.396H550.594V111.749ZM533.461 111.749H524.894V110.396H533.461V111.749ZM516.328 111.749H507.761V110.396H516.328V111.749ZM499.195 111.749H490.628V110.396H499.195V111.749ZM482.062 111.749H473.495V110.396H482.062V111.749ZM464.929 111.749H456.362V110.396H464.929V111.749Z" fill="#3F3D56"/>
<path d="M614.939 110.396H610.56V111.749H614.939V110.396Z" fill="#3F3D56"/>
<path d="M447.796 157.07H443.417V158.423H447.796V157.07Z" fill="#3F3D56"/>
<path d="M601.993 158.423H593.426V157.07H601.993V158.423ZM584.86 158.423H576.293V157.07H584.86L584.86 158.423ZM567.727 158.423H559.16V157.07H567.727V158.423ZM550.594 158.423H542.027V157.07H550.594V158.423ZM533.461 158.423H524.894V157.07H533.461V158.423ZM516.328 158.423H507.761V157.07H516.328V158.423ZM499.195 158.423H490.628V157.07H499.195V158.423ZM482.062 158.423H473.495V157.07H482.062V158.423ZM464.929 158.423H456.362V157.07H464.929V158.423Z" fill="#3F3D56"/>
<path d="M614.939 157.07H610.56V158.423H614.939V157.07Z" fill="#3F3D56"/>
<path d="M402.779 95.5146C399.412 95.5146 396.121 96.4399 393.322 98.1735C390.522 99.907 388.341 102.371 387.052 105.254C385.764 108.137 385.427 111.309 386.083 114.369C386.74 117.429 388.362 120.241 390.742 122.447C393.123 124.653 396.156 126.156 399.458 126.765C402.76 127.373 406.183 127.061 409.294 125.867C412.404 124.673 415.063 122.651 416.933 120.056C418.804 117.462 419.802 114.412 419.802 111.291C419.802 107.107 418.009 103.094 414.816 100.135C411.624 97.1768 407.294 95.5146 402.779 95.5146V95.5146ZM394.819 110.755L395.76 106.118C396.003 104.858 396.633 103.866 397.817 103.866H399.595L399.699 103.488C399.789 103.157 399.996 102.865 400.286 102.656C400.576 102.446 400.933 102.333 401.301 102.333H404.247C404.614 102.333 404.971 102.446 405.261 102.654C405.551 102.862 405.758 103.154 405.85 103.483L405.953 103.866H407.741C408.899 103.866 409.514 104.838 409.804 106.113V106.118L410.75 110.759C410.757 110.794 410.754 110.83 410.741 110.863C410.728 110.896 410.705 110.926 410.675 110.947C410.645 110.969 410.609 110.983 410.571 110.987C410.533 110.991 410.495 110.985 410.46 110.97L409.147 110.41C409.116 110.398 409.089 110.379 409.068 110.355C409.048 110.33 409.034 110.301 409.028 110.271L408.191 106.17C408.036 105.643 407.819 105.404 407.359 105.404H398.205C397.75 105.404 397.502 105.658 397.373 106.17L396.535 110.271C396.529 110.301 396.515 110.33 396.494 110.354C396.473 110.378 396.447 110.397 396.416 110.41L395.109 110.965C395.074 110.98 395.036 110.985 394.998 110.981C394.96 110.977 394.925 110.963 394.895 110.941C394.865 110.92 394.842 110.891 394.829 110.858C394.815 110.825 394.812 110.789 394.819 110.755L394.819 110.755ZM413.05 113.739L410.223 120.249C409.161 120.151 408.147 119.787 407.292 119.195C405.99 119.707 404.604 120.009 403.193 120.087C403.048 120.091 402.908 120.096 402.779 120.096C402.65 120.096 402.511 120.096 402.366 120.087C400.955 120.006 399.569 119.705 398.267 119.195C397.411 119.787 396.398 120.151 395.336 120.249L392.509 113.739C392.465 113.637 392.442 113.528 392.441 113.418C392.442 113.253 392.493 113.091 392.589 112.952C392.685 112.813 392.822 112.702 392.984 112.633L402.604 108.537C402.658 108.513 402.717 108.501 402.777 108.501C402.837 108.501 402.896 108.513 402.95 108.537L412.574 112.633C412.736 112.702 412.874 112.813 412.97 112.952C413.066 113.091 413.117 113.253 413.117 113.418C413.116 113.528 413.093 113.637 413.05 113.739V113.739Z" fill="#3F3D56"/>
<path d="M408.914 153.955H403.794C403.739 153.955 403.686 153.975 403.647 154.012C403.607 154.048 403.585 154.097 403.585 154.148V160.927C403.585 160.979 403.607 161.028 403.647 161.064C403.686 161.1 403.739 161.121 403.794 161.121H408.914C409.136 161.12 409.348 161.039 409.505 160.893C409.661 160.748 409.75 160.552 409.75 160.346V154.729C409.75 154.524 409.661 154.327 409.505 154.182C409.348 154.037 409.136 153.955 408.914 153.955Z" fill="#3F3D56"/>
<path d="M407.765 162.574C407.441 162.598 407.14 162.737 406.924 162.962C406.708 163.187 406.595 163.481 406.608 163.782C406.62 164.083 406.758 164.368 406.993 164.576C407.227 164.785 407.539 164.902 407.864 164.902C408.189 164.902 408.502 164.785 408.736 164.576C408.97 164.368 409.108 164.083 409.121 163.782C409.134 163.481 409.021 163.187 408.805 162.962C408.589 162.737 408.288 162.598 407.964 162.574C407.898 162.569 407.831 162.569 407.765 162.574Z" fill="#3F3D56"/>
<path d="M397.739 162.574C397.415 162.598 397.113 162.737 396.898 162.962C396.682 163.187 396.568 163.481 396.581 163.782C396.594 164.083 396.732 164.368 396.966 164.576C397.201 164.785 397.513 164.902 397.838 164.902C398.163 164.902 398.475 164.785 398.71 164.576C398.944 164.368 399.082 164.083 399.095 163.782C399.108 163.481 398.994 163.187 398.779 162.962C398.563 162.737 398.261 162.598 397.937 162.574C397.871 162.569 397.805 162.569 397.739 162.574V162.574Z" fill="#3F3D56"/>
<path d="M401.913 153.955H396.803C396.579 153.955 396.364 154.038 396.206 154.185C396.047 154.332 395.958 154.531 395.957 154.739V160.337C395.958 160.544 396.047 160.743 396.206 160.89C396.364 161.037 396.579 161.12 396.803 161.121H401.913C401.969 161.121 402.022 161.1 402.061 161.064C402.1 161.028 402.122 160.979 402.122 160.927V154.148C402.122 154.097 402.1 154.048 402.061 154.012C402.022 153.975 401.969 153.955 401.913 153.955V153.955Z" fill="#3F3D56"/>
<path d="M402.854 142.269C399.451 142.269 396.124 143.204 393.294 144.956C390.465 146.708 388.259 149.199 386.957 152.113C385.654 155.027 385.314 158.233 385.978 161.327C386.642 164.42 388.28 167.262 390.687 169.492C393.093 171.722 396.159 173.241 399.497 173.856C402.835 174.472 406.295 174.156 409.439 172.949C412.583 171.742 415.27 169.698 417.161 167.075C419.052 164.453 420.061 161.37 420.061 158.216C420.061 153.986 418.248 149.93 415.021 146.939C411.794 143.949 407.417 142.269 402.854 142.269V142.269ZM411.213 164.704C411.212 165.217 410.991 165.709 410.6 166.072C410.208 166.435 409.677 166.64 409.124 166.641H396.584C396.03 166.64 395.5 166.435 395.108 166.072C394.717 165.709 394.496 165.217 394.494 164.704V151.34C394.496 150.929 394.672 150.536 394.985 150.245C395.299 149.955 395.723 149.791 396.166 149.79H409.542C409.985 149.791 410.409 149.955 410.722 150.245C411.036 150.536 411.212 150.929 411.213 151.34V164.704Z" fill="#3F3D56"/>
<path d="M408.967 151.146H396.741C396.64 151.14 396.54 151.152 396.445 151.184C396.35 151.215 396.263 151.264 396.19 151.327C396.116 151.391 396.058 151.468 396.018 151.553C395.978 151.639 395.957 151.731 395.957 151.824C395.957 151.917 395.978 152.009 396.018 152.095C396.058 152.18 396.116 152.257 396.19 152.321C396.263 152.384 396.35 152.433 396.445 152.464C396.54 152.496 396.64 152.508 396.741 152.502H408.967C409.067 152.508 409.168 152.496 409.262 152.464C409.357 152.433 409.444 152.384 409.517 152.321C409.591 152.257 409.65 152.18 409.69 152.095C409.73 152.009 409.75 151.917 409.75 151.824C409.75 151.731 409.73 151.639 409.69 151.553C409.65 151.468 409.591 151.391 409.517 151.327C409.444 151.264 409.357 151.215 409.262 151.184C409.168 151.152 409.067 151.14 408.967 151.146Z" fill="#3F3D56"/>
<path d="M640.485 74.5443C638.32 74.5443 636.203 73.9492 634.403 72.8343C632.602 71.7193 631.199 70.1346 630.37 68.2806C629.542 66.4265 629.325 64.3864 629.747 62.4181C630.17 60.4499 631.213 58.6419 632.744 57.2229C634.275 55.8038 636.226 54.8375 638.35 54.4459C640.473 54.0544 642.675 54.2554 644.675 55.0234C646.676 55.7913 648.386 57.0919 649.589 58.7605C650.792 60.4291 651.434 62.3908 651.434 64.3976C651.43 67.0878 650.276 69.6669 648.223 71.5691C646.171 73.4713 643.388 74.5413 640.485 74.5443ZM640.485 55.6039C638.609 55.6039 636.774 56.1196 635.214 57.0859C633.653 58.0522 632.437 59.4256 631.719 61.0324C631.001 62.6393 630.813 64.4074 631.179 66.1132C631.545 67.819 632.449 69.3859 633.776 70.6158C635.103 71.8456 636.794 72.6831 638.634 73.0224C640.475 73.3617 642.383 73.1876 644.116 72.522C645.85 71.8564 647.332 70.7293 648.375 69.2832C649.417 67.8371 649.974 66.1369 649.974 64.3976C649.971 62.0662 648.97 59.831 647.192 58.1824C645.413 56.5338 643.001 55.6065 640.485 55.6039V55.6039Z" fill="#008665"/>
<path d="M644.651 61.4941L643.619 60.5376L640.485 63.4416L637.352 60.5376L636.32 61.4941L639.453 64.3981L636.32 67.302L637.352 68.2585L640.485 65.3545L643.619 68.2585L644.651 67.302L641.517 64.3981L644.651 61.4941Z" fill="#008665"/>
<path d="M640.485 121.219C638.32 121.219 636.203 120.624 634.403 119.509C632.602 118.394 631.199 116.809 630.37 114.955C629.542 113.101 629.325 111.061 629.747 109.093C630.17 107.125 631.213 105.317 632.744 103.898C634.275 102.479 636.226 101.512 638.35 101.121C640.473 100.729 642.675 100.93 644.675 101.698C646.676 102.466 648.386 103.767 649.589 105.435C650.792 107.104 651.434 109.066 651.434 111.072C651.43 113.763 650.276 116.342 648.223 118.244C646.171 120.146 643.388 121.216 640.485 121.219ZM640.485 102.279C638.609 102.279 636.774 102.794 635.214 103.761C633.653 104.727 632.437 106.1 631.719 107.707C631.001 109.314 630.813 111.082 631.179 112.788C631.545 114.494 632.449 116.061 633.776 117.291C635.103 118.52 636.794 119.358 638.634 119.697C640.475 120.037 642.383 119.862 644.116 119.197C645.85 118.531 647.332 117.404 648.375 115.958C649.417 114.512 649.974 112.812 649.974 111.072C649.971 108.741 648.97 106.506 647.192 104.857C645.413 103.209 643.001 102.281 640.485 102.279V102.279Z" fill="#008665"/>
<path d="M644.651 108.168L643.619 107.212L640.485 110.116L637.352 107.212L636.32 108.168L639.453 111.072L636.32 113.976L637.352 114.933L640.485 112.029L643.619 114.933L644.651 113.976L641.517 111.072L644.651 108.168Z" fill="#008665"/>
<path d="M640.485 167.894C638.32 167.894 636.203 167.299 634.403 166.184C632.602 165.069 631.199 163.484 630.37 161.63C629.542 159.776 629.325 157.736 629.747 155.768C630.17 153.799 631.213 151.992 632.744 150.572C634.275 149.153 636.226 148.187 638.35 147.796C640.473 147.404 642.675 147.605 644.675 148.373C646.676 149.141 648.386 150.441 649.589 152.11C650.792 153.779 651.434 155.74 651.434 157.747C651.43 160.437 650.276 163.017 648.223 164.919C646.171 166.821 643.388 167.891 640.485 167.894V167.894ZM640.485 148.953C638.609 148.953 636.774 149.469 635.214 150.436C633.653 151.402 632.437 152.775 631.719 154.382C631.001 155.989 630.813 157.757 631.179 159.463C631.545 161.169 632.449 162.736 633.776 163.965C635.103 165.195 636.794 166.033 638.634 166.372C640.475 166.711 642.383 166.537 644.116 165.872C645.85 165.206 647.332 164.079 648.375 162.633C649.417 161.187 649.974 159.487 649.974 157.747C649.971 155.416 648.97 153.181 647.192 151.532C645.413 149.883 643.001 148.956 640.485 148.953V148.953Z" fill="#008665"/>
<path d="M644.651 154.843L643.619 153.887L640.485 156.791L637.352 153.887L636.32 154.843L639.453 157.747L636.32 160.651L637.352 161.608L640.485 158.704L643.619 161.608L644.651 160.651L641.517 157.747L644.651 154.843Z" fill="#008665"/>
</svg>
